<svg id="Logo-Light" xmlns="http://www.w3.org/2000/svg" viewBox="0 0 1000 1000"><defs><style>.cls-1{fill:#4eaf4d;}.cls-2{fill:#fff;}</style></defs><path class="cls-1" d="M303.09,534.45h27.77V461H307.07V442.72c13.62-2.59,22.61-6.05,31.51-11.55h21.68V534.45H384v23.73h-81Z"/><path class="cls-1" d="M408.69,534.45h27.77V461H412.67V442.72c13.62-2.59,22.61-6.05,31.51-11.55h21.68V534.45h23.78v23.73H408.69Z"/><path class="cls-1" d="M507.75,494.11c0-43.23,18.15-65.34,45.44-65.34s45.44,22.28,45.44,65.34c0,43.22-18.14,66.47-45.44,66.47S507.75,537.33,507.75,494.11Zm63.06,0c0-34.66-7.72-42.6-17.62-42.6s-17.61,7.94-17.61,42.6,7.71,43.73,17.61,43.73S570.81,528.76,570.81,494.11Z"/><path class="cls-1" d="M613.35,494.11c0-43.23,18.15-65.34,45.44-65.34s45.44,22.28,45.44,65.34c0,43.22-18.14,66.47-45.44,66.47S613.35,537.33,613.35,494.11Zm63.06,0c0-34.66-7.72-42.6-17.62-42.6s-17.61,7.94-17.61,42.6,7.71,43.73,17.61,43.73S676.41,528.76,676.41,494.11Z"/><path class="cls-1" d="M296.55,644.11c0-43.23,18.15-65.34,45.44-65.34s45.44,22.28,45.44,65.34c0,43.22-18.14,66.47-45.44,66.47S296.55,687.33,296.55,644.11Zm63.06,0c0-34.66-7.72-42.6-17.62-42.6s-17.61,7.94-17.61,42.6,7.71,43.73,17.61,43.73S359.61,678.76,359.61,644.11Z"/><path class="cls-1" d="M408.69,684.45h27.77V611H412.67V592.72c13.62-2.59,22.61-6.05,31.51-11.55h21.68V684.45h23.78v23.73H408.69Z"/><path class="cls-1" d="M514.29,684.45h27.77V611H518.27V592.72c13.62-2.59,22.61-6.05,31.51-11.55h21.68V684.45h23.78v23.73h-81Z"/><path class="cls-1" d="M613.35,644.11c0-43.23,18.15-65.34,45.44-65.34s45.44,22.28,45.44,65.34c0,43.22-18.14,66.47-45.44,66.47S613.35,687.33,613.35,644.11Zm63.06,0c0-34.66-7.72-42.6-17.62-42.6s-17.61,7.94-17.61,42.6,7.71,43.73,17.61,43.73S676.41,678.76,676.41,644.11Z"/><path class="cls-1" d="M296.55,794.11c0-43.23,18.15-65.34,45.44-65.34s45.44,22.28,45.44,65.34c0,43.22-18.14,66.47-45.44,66.47S296.55,837.33,296.55,794.11Zm63.06,0c0-34.66-7.72-42.61-17.62-42.61s-17.61,8-17.61,42.61,7.71,43.73,17.61,43.73S359.61,828.76,359.61,794.11Z"/><path class="cls-1" d="M402.15,794.11c0-43.23,18.15-65.34,45.44-65.34S493,751.05,493,794.11c0,43.22-18.14,66.47-45.44,66.47S402.15,837.33,402.15,794.11Zm63.06,0c0-34.66-7.72-42.61-17.62-42.61s-17.61,8-17.61,42.61,7.71,43.73,17.61,43.73S465.21,828.76,465.21,794.11Z"/><path class="cls-1" d="M514.29,834.45h27.77V761H518.27V742.72c13.62-2.59,22.61-6.05,31.51-11.55h21.68V834.45h23.78v23.73h-81Z"/><path class="cls-1" d="M619.89,834.45h27.77V761H623.87V742.72c13.62-2.59,22.61-6.05,31.51-11.55h21.68V834.45h23.78v23.73h-81Z"/><path class="cls-1" d="M686.74,139.28a323,323,0,0,0-46.65-25.95c-14.3-6.47-67.17-29.11-140.07-29.11-72.74,0-125.55,22.56-140.07,29.11a323.94,323.94,0,0,0-46.69,25.94,271.1,271.1,0,0,0-121.5,227.48,25.69,25.69,0,0,0,25.69,25.69h565.1a25.69,25.69,0,0,0,25.69-25.69A271.09,271.09,0,0,0,686.74,139.28Z"/><circle class="cls-2" cx="371.57" cy="264.01" r="25.69"/><circle class="cls-2" cx="628.43" cy="264.01" r="25.69"/></svg>