<svg id="Logo-Light" xmlns="http://www.w3.org/2000/svg" viewBox="0 0 1000 1000"><defs><style>.cls-1{fill:#4daf4f;}.cls-2{fill:#fafbfc;}</style></defs><path class="cls-1" d="M257.49,428.83h4V418.21h-3.44v-2.64a12.26,12.26,0,0,0,4.55-1.67h3.13v14.93h3.44v3.43h-11.7Z"/><path class="cls-1" d="M272.75,428.83h4V418.21h-3.43v-2.64a12.39,12.39,0,0,0,4.55-1.67H281v14.93h3.44v3.43h-11.7Z"/><path class="cls-1" d="M287.06,423c0-6.25,2.63-9.44,6.57-9.44s6.57,3.22,6.57,9.44-2.63,9.6-6.57,9.6S287.06,429.24,287.06,423Zm9.12,0c0-5-1.12-6.16-2.55-6.16s-2.55,1.15-2.55,6.16,1.12,6.32,2.55,6.32S296.18,428,296.18,423Z"/><path class="cls-1" d="M303.27,428.83h4V418.21h-3.44v-2.64a12.38,12.38,0,0,0,4.56-1.67h3.13v14.93H315v3.43H303.27Z"/><path class="cls-1" d="M318.53,428.83h4V418.21H319.1v-2.64a12.26,12.26,0,0,0,4.55-1.67h3.14v14.93h3.43v3.43H318.53Z"/><path class="cls-1" d="M332.84,423c0-6.25,2.62-9.44,6.56-9.44S346,416.78,346,423s-2.62,9.6-6.57,9.6S332.84,429.24,332.84,423Zm9.11,0c0-5-1.12-6.16-2.55-6.16s-2.54,1.15-2.54,6.16,1.11,6.32,2.54,6.32S342,428,342,423Z"/><path class="cls-1" d="M349,428.83h4V418.21h-3.43v-2.64a12.39,12.39,0,0,0,4.55-1.67h3.13v14.93h3.44v3.43H349Z"/><path class="cls-1" d="M363.35,423c0-6.25,2.63-9.44,6.57-9.44s6.57,3.22,6.57,9.44-2.63,9.6-6.57,9.6S363.35,429.24,363.35,423Zm9.12,0c0-5-1.12-6.16-2.55-6.16s-2.55,1.15-2.55,6.16,1.12,6.32,2.55,6.32S372.47,428,372.47,423Z"/><path class="cls-1" d="M379.56,428.83h4V418.21h-3.44v-2.64a12.26,12.26,0,0,0,4.55-1.67h3.14v14.93h3.43v3.43H379.56Z"/><path class="cls-1" d="M394.81,428.83h4V418.21h-3.44v-2.64a12.26,12.26,0,0,0,4.55-1.67h3.14v14.93h3.43v3.43h-11.7Z"/><path class="cls-1" d="M410.07,428.83h4V418.21h-3.43v-2.64a12.32,12.32,0,0,0,4.55-1.67h3.13v14.93h3.44v3.43h-11.7Z"/><path class="cls-1" d="M425.33,428.83h4V418.21H425.9v-2.64a12.38,12.38,0,0,0,4.56-1.67h3.13v14.93H437v3.43h-11.7Z"/><path class="cls-1" d="M439.64,423c0-6.25,2.62-9.44,6.57-9.44s6.57,3.22,6.57,9.44-2.63,9.6-6.57,9.6S439.64,429.24,439.64,423Zm9.11,0c0-5-1.11-6.16-2.54-6.16s-2.55,1.15-2.55,6.16,1.12,6.32,2.55,6.32S448.75,428,448.75,423Z"/><path class="cls-1" d="M455.85,428.83h4V418.21h-3.44v-2.64A12.26,12.26,0,0,0,461,413.9h3.14v14.93h3.43v3.43H455.85Z"/><path class="cls-1" d="M470.16,423c0-6.25,2.62-9.44,6.56-9.44s6.57,3.22,6.57,9.44-2.62,9.6-6.57,9.6S470.16,429.24,470.16,423Zm9.11,0c0-5-1.11-6.16-2.55-6.16s-2.54,1.15-2.54,6.16,1.11,6.32,2.54,6.32S479.27,428,479.27,423Z"/><path class="cls-1" d="M486.36,428.83h4V418.21h-3.43v-2.64a12.39,12.39,0,0,0,4.55-1.67h3.13v14.93h3.44v3.43h-11.7Z"/><path class="cls-1" d="M501.62,428.83h4V418.21h-3.44v-2.64a12.38,12.38,0,0,0,4.56-1.67h3.13v14.93h3.44v3.43h-11.7Z"/><path class="cls-1" d="M516.88,428.83h4V418.21h-3.44v-2.64A12.26,12.26,0,0,0,522,413.9h3.14v14.93h3.43v3.43H516.88Z"/><path class="cls-1" d="M532.13,428.83h4V418.21h-3.44v-2.64a12.26,12.26,0,0,0,4.55-1.67h3.14v14.93h3.43v3.43h-11.7Z"/><path class="cls-1" d="M547.39,428.83h4V418.21H548v-2.64a12.26,12.26,0,0,0,4.55-1.67h3.13v14.93h3.44v3.43h-11.7Z"/><path class="cls-1" d="M562.65,428.83h4V418.21h-3.43v-2.64a12.39,12.39,0,0,0,4.55-1.67h3.13v14.93h3.44v3.43h-11.7Z"/><path class="cls-1" d="M577.91,428.83h4V418.21h-3.44v-2.64A12.38,12.38,0,0,0,583,413.9h3.13v14.93h3.44v3.43h-11.7Z"/><path class="cls-1" d="M593.17,428.83h4V418.21h-3.44v-2.64a12.26,12.26,0,0,0,4.55-1.67h3.14v14.93h3.43v3.43H593.17Z"/><path class="cls-1" d="M608.42,428.83h4V418.21H609v-2.64a12.26,12.26,0,0,0,4.55-1.67h3.13v14.93h3.44v3.43h-11.7Z"/><path class="cls-1" d="M623.68,428.83h4V418.21h-3.43v-2.64a12.32,12.32,0,0,0,4.55-1.67h3.13v14.93h3.44v3.43h-11.7Z"/><path class="cls-1" d="M638,423c0-6.25,2.62-9.44,6.56-9.44s6.57,3.22,6.57,9.44-2.63,9.6-6.57,9.6S638,429.24,638,423Zm9.11,0c0-5-1.12-6.16-2.55-6.16S642,418,642,423s1.12,6.32,2.55,6.32S647.11,428,647.11,423Z"/><path class="cls-1" d="M653.25,423c0-6.25,2.62-9.44,6.57-9.44s6.56,3.22,6.56,9.44-2.62,9.6-6.56,9.6S653.25,429.24,653.25,423Zm9.11,0c0-5-1.11-6.16-2.54-6.16s-2.55,1.15-2.55,6.16,1.12,6.32,2.55,6.32S662.36,428,662.36,423Z"/><path class="cls-1" d="M669.46,428.83h4V418.21H670v-2.64a12.26,12.26,0,0,0,4.55-1.67h3.14v14.93h3.43v3.43H669.46Z"/><path class="cls-1" d="M684.71,428.83h4V418.21h-3.43v-2.64a12.26,12.26,0,0,0,4.55-1.67H693v14.93h3.44v3.43h-11.7Z"/><path class="cls-1" d="M699,423c0-6.25,2.62-9.44,6.56-9.44s6.57,3.22,6.57,9.44-2.62,9.6-6.57,9.6S699,429.24,699,423Zm9.11,0c0-5-1.12-6.16-2.55-6.16s-2.54,1.15-2.54,6.16,1.11,6.32,2.54,6.32S708.14,428,708.14,423Z"/><path class="cls-1" d="M714.28,423c0-6.25,2.63-9.44,6.57-9.44s6.57,3.22,6.57,9.44-2.63,9.6-6.57,9.6S714.28,429.24,714.28,423Zm9.12,0c0-5-1.12-6.16-2.55-6.16S718.3,418,718.3,423s1.12,6.32,2.55,6.32S723.4,428,723.4,423Z"/><path class="cls-1" d="M730.49,428.83h4V418.21h-3.44v-2.64a12.26,12.26,0,0,0,4.55-1.67h3.14v14.93h3.43v3.43H730.49Z"/><path class="cls-1" d="M257.49,457.73h4V447.11h-3.44v-2.64a12.26,12.26,0,0,0,4.55-1.67h3.13v14.93h3.44v3.42h-11.7Z"/><path class="cls-1" d="M272.75,457.73h4V447.11h-3.43v-2.64a12.39,12.39,0,0,0,4.55-1.67H281v14.93h3.44v3.42h-11.7Z"/><path class="cls-1" d="M288,457.73h4V447.11h-3.44v-2.64a12.38,12.38,0,0,0,4.56-1.67h3.13v14.93h3.44v3.42H288Z"/><path class="cls-1" d="M302.32,451.9c0-6.25,2.62-9.45,6.57-9.45s6.56,3.22,6.56,9.45-2.62,9.6-6.56,9.6S302.32,458.14,302.32,451.9Zm9.11,0c0-5-1.11-6.16-2.54-6.16s-2.55,1.15-2.55,6.16,1.12,6.31,2.55,6.31S311.43,456.9,311.43,451.9Z"/><path class="cls-1" d="M317.58,451.9c0-6.25,2.62-9.45,6.57-9.45s6.56,3.22,6.56,9.45-2.62,9.6-6.56,9.6S317.58,458.14,317.58,451.9Zm9.11,0c0-5-1.11-6.16-2.54-6.16s-2.55,1.15-2.55,6.16,1.12,6.31,2.55,6.31S326.69,456.9,326.69,451.9Z"/><path class="cls-1" d="M333.78,457.73h4V447.11h-3.43v-2.64a12.32,12.32,0,0,0,4.55-1.67H342v14.93h3.44v3.42h-11.7Z"/><path class="cls-1" d="M348.1,451.9c0-6.25,2.62-9.45,6.56-9.45s6.57,3.22,6.57,9.45-2.62,9.6-6.57,9.6S348.1,458.14,348.1,451.9Zm9.11,0c0-5-1.12-6.16-2.55-6.16s-2.54,1.15-2.54,6.16,1.11,6.31,2.54,6.31S357.21,456.9,357.21,451.9Z"/><path class="cls-1" d="M364.3,457.73h4V447.11h-3.44v-2.64a12.38,12.38,0,0,0,4.56-1.67h3.13v14.93H376v3.42H364.3Z"/><path class="cls-1" d="M379.56,457.73h4V447.11h-3.44v-2.64a12.26,12.26,0,0,0,4.55-1.67h3.14v14.93h3.43v3.42H379.56Z"/><path class="cls-1" d="M394.81,457.73h4V447.11h-3.44v-2.64a12.26,12.26,0,0,0,4.55-1.67h3.14v14.93h3.43v3.42h-11.7Z"/><path class="cls-1" d="M410.07,457.73h4V447.11h-3.43v-2.64a12.32,12.32,0,0,0,4.55-1.67h3.13v14.93h3.44v3.42h-11.7Z"/><path class="cls-1" d="M425.33,457.73h4V447.11H425.9v-2.64a12.38,12.38,0,0,0,4.56-1.67h3.13v14.93H437v3.42h-11.7Z"/><path class="cls-1" d="M439.64,451.9c0-6.25,2.62-9.45,6.57-9.45s6.57,3.22,6.57,9.45-2.63,9.6-6.57,9.6S439.64,458.14,439.64,451.9Zm9.11,0c0-5-1.11-6.16-2.54-6.16s-2.55,1.15-2.55,6.16,1.12,6.31,2.55,6.31S448.75,456.9,448.75,451.9Z"/><path class="cls-1" d="M454.9,451.9c0-6.25,2.62-9.45,6.57-9.45s6.56,3.22,6.56,9.45-2.62,9.6-6.56,9.6S454.9,458.14,454.9,451.9Zm9.11,0c0-5-1.11-6.16-2.54-6.16s-2.55,1.15-2.55,6.16,1.12,6.31,2.55,6.31S464,456.9,464,451.9Z"/><path class="cls-1" d="M470.16,451.9c0-6.25,2.62-9.45,6.56-9.45s6.57,3.22,6.57,9.45-2.62,9.6-6.57,9.6S470.16,458.14,470.16,451.9Zm9.11,0c0-5-1.11-6.16-2.55-6.16s-2.54,1.15-2.54,6.16,1.11,6.31,2.54,6.31S479.27,456.9,479.27,451.9Z"/><path class="cls-1" d="M485.42,451.9c0-6.25,2.62-9.45,6.56-9.45s6.57,3.22,6.57,9.45-2.62,9.6-6.57,9.6S485.42,458.14,485.42,451.9Zm9.11,0c0-5-1.12-6.16-2.55-6.16s-2.54,1.15-2.54,6.16,1.11,6.31,2.54,6.31S494.53,456.9,494.53,451.9Z"/><path class="cls-1" d="M500.67,451.9c0-6.25,2.63-9.45,6.57-9.45s6.57,3.22,6.57,9.45-2.63,9.6-6.57,9.6S500.67,458.14,500.67,451.9Zm9.12,0c0-5-1.12-6.16-2.55-6.16s-2.55,1.15-2.55,6.16,1.12,6.31,2.55,6.31S509.79,456.9,509.79,451.9Z"/><path class="cls-1" d="M515.93,451.9c0-6.25,2.62-9.45,6.57-9.45s6.56,3.22,6.56,9.45-2.62,9.6-6.56,9.6S515.93,458.14,515.93,451.9Zm9.11,0c0-5-1.11-6.16-2.54-6.16S520,446.89,520,451.9s1.12,6.31,2.55,6.31S525,456.9,525,451.9Z"/><path class="cls-1" d="M532.13,457.73h4V447.11h-3.44v-2.64a12.26,12.26,0,0,0,4.55-1.67h3.14v14.93h3.43v3.42h-11.7Z"/><path class="cls-1" d="M546.45,451.9c0-6.25,2.62-9.45,6.56-9.45s6.57,3.22,6.57,9.45-2.62,9.6-6.57,9.6S546.45,458.14,546.45,451.9Zm9.11,0c0-5-1.12-6.16-2.55-6.16s-2.54,1.15-2.54,6.16,1.11,6.31,2.54,6.31S555.56,456.9,555.56,451.9Z"/><path class="cls-1" d="M561.71,451.9c0-6.25,2.62-9.45,6.56-9.45s6.57,3.22,6.57,9.45-2.62,9.6-6.57,9.6S561.71,458.14,561.71,451.9Zm9.11,0c0-5-1.12-6.16-2.55-6.16s-2.54,1.15-2.54,6.16,1.11,6.31,2.54,6.31S570.82,456.9,570.82,451.9Z"/><path class="cls-1" d="M577,451.9c0-6.25,2.62-9.45,6.57-9.45s6.57,3.22,6.57,9.45-2.63,9.6-6.57,9.6S577,458.14,577,451.9Zm9.12,0c0-5-1.12-6.16-2.55-6.16S581,446.89,581,451.9s1.12,6.31,2.55,6.31S586.08,456.9,586.08,451.9Z"/><path class="cls-1" d="M593.17,457.73h4V447.11h-3.44v-2.64a12.26,12.26,0,0,0,4.55-1.67h3.14v14.93h3.43v3.42H593.17Z"/><path class="cls-1" d="M608.42,457.73h4V447.11H609v-2.64a12.26,12.26,0,0,0,4.55-1.67h3.13v14.93h3.44v3.42h-11.7Z"/><path class="cls-1" d="M622.74,451.9c0-6.25,2.62-9.45,6.56-9.45s6.57,3.22,6.57,9.45-2.62,9.6-6.57,9.6S622.74,458.14,622.74,451.9Zm9.11,0c0-5-1.12-6.16-2.55-6.16s-2.54,1.15-2.54,6.16,1.11,6.31,2.54,6.31S631.85,456.9,631.85,451.9Z"/><path class="cls-1" d="M638,451.9c0-6.25,2.62-9.45,6.56-9.45s6.57,3.22,6.57,9.45-2.63,9.6-6.57,9.6S638,458.14,638,451.9Zm9.11,0c0-5-1.12-6.16-2.55-6.16S642,446.89,642,451.9s1.12,6.31,2.55,6.31S647.11,456.9,647.11,451.9Z"/><path class="cls-1" d="M653.25,451.9c0-6.25,2.62-9.45,6.57-9.45s6.56,3.22,6.56,9.45-2.62,9.6-6.56,9.6S653.25,458.14,653.25,451.9Zm9.11,0c0-5-1.11-6.16-2.54-6.16s-2.55,1.15-2.55,6.16,1.12,6.31,2.55,6.31S662.36,456.9,662.36,451.9Z"/><path class="cls-1" d="M669.46,457.73h4V447.11H670v-2.64a12.26,12.26,0,0,0,4.55-1.67h3.14v14.93h3.43v3.42H669.46Z"/><path class="cls-1" d="M684.71,457.73h4V447.11h-3.43v-2.64a12.26,12.26,0,0,0,4.55-1.67H693v14.93h3.44v3.42h-11.7Z"/><path class="cls-1" d="M699,451.9c0-6.25,2.62-9.45,6.56-9.45s6.57,3.22,6.57,9.45-2.62,9.6-6.57,9.6S699,458.14,699,451.9Zm9.11,0c0-5-1.12-6.16-2.55-6.16s-2.54,1.15-2.54,6.16,1.11,6.31,2.54,6.31S708.14,456.9,708.14,451.9Z"/><path class="cls-1" d="M714.28,451.9c0-6.25,2.63-9.45,6.57-9.45s6.57,3.22,6.57,9.45-2.63,9.6-6.57,9.6S714.28,458.14,714.28,451.9Zm9.12,0c0-5-1.12-6.16-2.55-6.16s-2.55,1.15-2.55,6.16,1.12,6.31,2.55,6.31S723.4,456.9,723.4,451.9Z"/><path class="cls-1" d="M729.54,451.9c0-6.25,2.62-9.45,6.57-9.45s6.56,3.22,6.56,9.45-2.62,9.6-6.56,9.6S729.54,458.14,729.54,451.9Zm9.11,0c0-5-1.11-6.16-2.54-6.16s-2.55,1.15-2.55,6.16,1.12,6.31,2.55,6.31S738.65,456.9,738.65,451.9Z"/><path class="cls-1" d="M256.55,480.79c0-6.24,2.62-9.44,6.56-9.44s6.57,3.22,6.57,9.44-2.62,9.61-6.57,9.61S256.55,487,256.55,480.79Zm9.11,0c0-5-1.11-6.15-2.55-6.15s-2.54,1.15-2.54,6.15,1.11,6.32,2.54,6.32S265.66,485.8,265.66,480.79Z"/><path class="cls-1" d="M271.81,480.79c0-6.24,2.62-9.44,6.56-9.44s6.57,3.22,6.57,9.44-2.62,9.61-6.57,9.61S271.81,487,271.81,480.79Zm9.11,0c0-5-1.12-6.15-2.55-6.15s-2.54,1.15-2.54,6.15,1.11,6.32,2.54,6.32S280.92,485.8,280.92,480.79Z"/><path class="cls-1" d="M287.06,480.79c0-6.24,2.63-9.44,6.57-9.44s6.57,3.22,6.57,9.44-2.63,9.61-6.57,9.61S287.06,487,287.06,480.79Zm9.12,0c0-5-1.12-6.15-2.55-6.15s-2.55,1.15-2.55,6.15,1.12,6.32,2.55,6.32S296.18,485.8,296.18,480.79Z"/><path class="cls-1" d="M303.27,486.62h4V476h-3.44v-2.63a12.74,12.74,0,0,0,4.56-1.67h3.13v14.92H315v3.43H303.27Z"/><path class="cls-1" d="M317.58,480.79c0-6.24,2.62-9.44,6.57-9.44s6.56,3.22,6.56,9.44-2.62,9.61-6.56,9.61S317.58,487,317.58,480.79Zm9.11,0c0-5-1.11-6.15-2.54-6.15s-2.55,1.15-2.55,6.15,1.12,6.32,2.55,6.32S326.69,485.8,326.69,480.79Z"/><path class="cls-1" d="M333.78,486.62h4V476h-3.43v-2.63a12.69,12.69,0,0,0,4.55-1.67H342v14.92h3.44v3.43h-11.7Z"/><path class="cls-1" d="M349,486.62h4V476h-3.43v-2.63a12.76,12.76,0,0,0,4.55-1.67h3.13v14.92h3.44v3.43H349Z"/><path class="cls-1" d="M364.3,486.62h4V476h-3.44v-2.63a12.74,12.74,0,0,0,4.56-1.67h3.13v14.92H376v3.43H364.3Z"/><path class="cls-1" d="M379.56,486.62h4V476h-3.44v-2.63a12.62,12.62,0,0,0,4.55-1.67h3.14v14.92h3.43v3.43H379.56Z"/><path class="cls-1" d="M394.81,486.62h4V476h-3.44v-2.63a12.62,12.62,0,0,0,4.55-1.67h3.14v14.92h3.43v3.43h-11.7Z"/><path class="cls-1" d="M409.13,480.79c0-6.24,2.62-9.44,6.56-9.44s6.57,3.22,6.57,9.44-2.62,9.61-6.57,9.61S409.13,487,409.13,480.79Zm9.11,0c0-5-1.12-6.15-2.55-6.15s-2.54,1.15-2.54,6.15,1.11,6.32,2.54,6.32S418.24,485.8,418.24,480.79Z"/><path class="cls-1" d="M425.33,486.62h4V476H425.9v-2.63a12.74,12.74,0,0,0,4.56-1.67h3.13v14.92H437v3.43h-11.7Z"/><path class="cls-1" d="M440.59,486.62h4V476h-3.44v-2.63a12.74,12.74,0,0,0,4.56-1.67h3.13v14.92h3.44v3.43h-11.7Z"/><path class="cls-1" d="M454.9,480.79c0-6.24,2.62-9.44,6.57-9.44s6.56,3.22,6.56,9.44-2.62,9.61-6.56,9.61S454.9,487,454.9,480.79Zm9.11,0c0-5-1.11-6.15-2.54-6.15s-2.55,1.15-2.55,6.15,1.12,6.32,2.55,6.32S464,485.8,464,480.79Z"/><path class="cls-1" d="M471.1,486.62h4V476h-3.44v-2.63a12.62,12.62,0,0,0,4.55-1.67h3.13v14.92h3.44v3.43H471.1Z"/><path class="cls-1" d="M485.42,480.79c0-6.24,2.62-9.44,6.56-9.44s6.57,3.22,6.57,9.44-2.62,9.61-6.57,9.61S485.42,487,485.42,480.79Zm9.11,0c0-5-1.12-6.15-2.55-6.15s-2.54,1.15-2.54,6.15,1.11,6.32,2.54,6.32S494.53,485.8,494.53,480.79Z"/><path class="cls-1" d="M500.67,480.79c0-6.24,2.63-9.44,6.57-9.44s6.57,3.22,6.57,9.44-2.63,9.61-6.57,9.61S500.67,487,500.67,480.79Zm9.12,0c0-5-1.12-6.15-2.55-6.15s-2.55,1.15-2.55,6.15,1.12,6.32,2.55,6.32S509.79,485.8,509.79,480.79Z"/><path class="cls-1" d="M515.93,480.79c0-6.24,2.62-9.44,6.57-9.44s6.56,3.22,6.56,9.44-2.62,9.61-6.56,9.61S515.93,487,515.93,480.79Zm9.11,0c0-5-1.11-6.15-2.54-6.15s-2.55,1.15-2.55,6.15,1.12,6.32,2.55,6.32S525,485.8,525,480.79Z"/><path class="cls-1" d="M532.13,486.62h4V476h-3.44v-2.63a12.62,12.62,0,0,0,4.55-1.67h3.14v14.92h3.43v3.43h-11.7Z"/><path class="cls-1" d="M547.39,486.62h4V476H548v-2.63a12.62,12.62,0,0,0,4.55-1.67h3.13v14.92h3.44v3.43h-11.7Z"/><path class="cls-1" d="M562.65,486.62h4V476h-3.43v-2.63a12.76,12.76,0,0,0,4.55-1.67h3.13v14.92h3.44v3.43h-11.7Z"/><path class="cls-1" d="M577,480.79c0-6.24,2.62-9.44,6.57-9.44s6.57,3.22,6.57,9.44-2.63,9.61-6.57,9.61S577,487,577,480.79Zm9.12,0c0-5-1.12-6.15-2.55-6.15s-2.55,1.15-2.55,6.15,1.12,6.32,2.55,6.32S586.08,485.8,586.08,480.79Z"/><path class="cls-1" d="M593.17,486.62h4V476h-3.44v-2.63a12.62,12.62,0,0,0,4.55-1.67h3.14v14.92h3.43v3.43H593.17Z"/><path class="cls-1" d="M608.42,486.62h4V476H609v-2.63a12.62,12.62,0,0,0,4.55-1.67h3.13v14.92h3.44v3.43h-11.7Z"/><path class="cls-1" d="M622.74,480.79c0-6.24,2.62-9.44,6.56-9.44s6.57,3.22,6.57,9.44-2.62,9.61-6.57,9.61S622.74,487,622.74,480.79Zm9.11,0c0-5-1.12-6.15-2.55-6.15s-2.54,1.15-2.54,6.15,1.11,6.32,2.54,6.32S631.85,485.8,631.85,480.79Z"/><path class="cls-1" d="M638,480.79c0-6.24,2.62-9.44,6.56-9.44s6.57,3.22,6.57,9.44-2.63,9.61-6.57,9.61S638,487,638,480.79Zm9.11,0c0-5-1.12-6.15-2.55-6.15s-2.55,1.15-2.55,6.15,1.12,6.32,2.55,6.32S647.11,485.8,647.11,480.79Z"/><path class="cls-1" d="M653.25,480.79c0-6.24,2.62-9.44,6.57-9.44s6.56,3.22,6.56,9.44-2.62,9.61-6.56,9.61S653.25,487,653.25,480.79Zm9.11,0c0-5-1.11-6.15-2.54-6.15s-2.55,1.15-2.55,6.15,1.12,6.32,2.55,6.32S662.36,485.8,662.36,480.79Z"/><path class="cls-1" d="M668.51,480.79c0-6.24,2.62-9.44,6.57-9.44s6.56,3.22,6.56,9.44-2.62,9.61-6.56,9.61S668.51,487,668.51,480.79Zm9.11,0c0-5-1.11-6.15-2.54-6.15s-2.55,1.15-2.55,6.15,1.12,6.32,2.55,6.32S677.62,485.8,677.62,480.79Z"/><path class="cls-1" d="M683.77,480.79c0-6.24,2.62-9.44,6.56-9.44s6.57,3.22,6.57,9.44-2.62,9.61-6.57,9.61S683.77,487,683.77,480.79Zm9.11,0c0-5-1.12-6.15-2.55-6.15s-2.54,1.15-2.54,6.15,1.11,6.32,2.54,6.32S692.88,485.8,692.88,480.79Z"/><path class="cls-1" d="M699,480.79c0-6.24,2.62-9.44,6.56-9.44s6.57,3.22,6.57,9.44-2.62,9.61-6.57,9.61S699,487,699,480.79Zm9.11,0c0-5-1.12-6.15-2.55-6.15s-2.54,1.15-2.54,6.15,1.11,6.32,2.54,6.32S708.14,485.8,708.14,480.79Z"/><path class="cls-1" d="M714.28,480.79c0-6.24,2.63-9.44,6.57-9.44s6.57,3.22,6.57,9.44-2.63,9.61-6.57,9.61S714.28,487,714.28,480.79Zm9.12,0c0-5-1.12-6.15-2.55-6.15s-2.55,1.15-2.55,6.15,1.12,6.32,2.55,6.32S723.4,485.8,723.4,480.79Z"/><path class="cls-1" d="M730.49,486.62h4V476h-3.44v-2.63a12.62,12.62,0,0,0,4.55-1.67h3.14v14.92h3.43v3.43H730.49Z"/><path class="cls-1" d="M257.49,515.52h4V504.9h-3.44v-2.64a12.44,12.44,0,0,0,4.55-1.66h3.13v14.92h3.44V519h-11.7Z"/><path class="cls-1" d="M271.81,509.69c0-6.25,2.62-9.44,6.56-9.44s6.57,3.22,6.57,9.44-2.62,9.6-6.57,9.6S271.81,515.94,271.81,509.69Zm9.11,0c0-5-1.12-6.16-2.55-6.16s-2.54,1.15-2.54,6.16,1.11,6.32,2.54,6.32S280.92,514.7,280.92,509.69Z"/><path class="cls-1" d="M288,515.52h4V504.9h-3.44v-2.64a12.56,12.56,0,0,0,4.56-1.66h3.13v14.92h3.44V519H288Z"/><path class="cls-1" d="M303.27,515.52h4V504.9h-3.44v-2.64a12.56,12.56,0,0,0,4.56-1.66h3.13v14.92H315V519H303.27Z"/><path class="cls-1" d="M317.58,509.69c0-6.25,2.62-9.44,6.57-9.44s6.56,3.22,6.56,9.44-2.62,9.6-6.56,9.6S317.58,515.94,317.58,509.69Zm9.11,0c0-5-1.11-6.16-2.54-6.16s-2.55,1.15-2.55,6.16,1.12,6.32,2.55,6.32S326.69,514.7,326.69,509.69Z"/><path class="cls-1" d="M332.84,509.69c0-6.25,2.62-9.44,6.56-9.44s6.57,3.22,6.57,9.44-2.62,9.6-6.57,9.6S332.84,515.94,332.84,509.69Zm9.11,0c0-5-1.12-6.16-2.55-6.16s-2.54,1.15-2.54,6.16S338,516,339.4,516,342,514.7,342,509.69Z"/><path class="cls-1" d="M348.1,509.69c0-6.25,2.62-9.44,6.56-9.44s6.57,3.22,6.57,9.44-2.62,9.6-6.57,9.6S348.1,515.94,348.1,509.69Zm9.11,0c0-5-1.12-6.16-2.55-6.16s-2.54,1.15-2.54,6.16,1.11,6.32,2.54,6.32S357.21,514.7,357.21,509.69Z"/><path class="cls-1" d="M364.3,515.52h4V504.9h-3.44v-2.64a12.56,12.56,0,0,0,4.56-1.66h3.13v14.92H376V519H364.3Z"/><path class="cls-1" d="M379.56,515.52h4V504.9h-3.44v-2.64a12.44,12.44,0,0,0,4.55-1.66h3.14v14.92h3.43V519H379.56Z"/><path class="cls-1" d="M394.81,515.52h4V504.9h-3.44v-2.64a12.44,12.44,0,0,0,4.55-1.66h3.14v14.92h3.43V519h-11.7Z"/><path class="cls-1" d="M410.07,515.52h4V504.9h-3.43v-2.64a12.5,12.5,0,0,0,4.55-1.66h3.13v14.92h3.44V519h-11.7Z"/><path class="cls-1" d="M425.33,515.52h4V504.9H425.9v-2.64a12.56,12.56,0,0,0,4.56-1.66h3.13v14.92H437V519h-11.7Z"/><path class="cls-1" d="M440.59,515.52h4V504.9h-3.44v-2.64a12.56,12.56,0,0,0,4.56-1.66h3.13v14.92h3.44V519h-11.7Z"/><path class="cls-1" d="M454.9,509.69c0-6.25,2.62-9.44,6.57-9.44s6.56,3.22,6.56,9.44-2.62,9.6-6.56,9.6S454.9,515.94,454.9,509.69Zm9.11,0c0-5-1.11-6.16-2.54-6.16s-2.55,1.15-2.55,6.16S460,516,461.47,516,464,514.7,464,509.69Z"/><path class="cls-1" d="M471.1,515.52h4V504.9h-3.44v-2.64a12.44,12.44,0,0,0,4.55-1.66h3.13v14.92h3.44V519H471.1Z"/><path class="cls-1" d="M485.42,509.69c0-6.25,2.62-9.44,6.56-9.44s6.57,3.22,6.57,9.44-2.62,9.6-6.57,9.6S485.42,515.94,485.42,509.69Zm9.11,0c0-5-1.12-6.16-2.55-6.16s-2.54,1.15-2.54,6.16S490.55,516,492,516,494.53,514.7,494.53,509.69Z"/><path class="cls-1" d="M500.67,509.69c0-6.25,2.63-9.44,6.57-9.44s6.57,3.22,6.57,9.44-2.63,9.6-6.57,9.6S500.67,515.94,500.67,509.69Zm9.12,0c0-5-1.12-6.16-2.55-6.16s-2.55,1.15-2.55,6.16,1.12,6.32,2.55,6.32S509.79,514.7,509.79,509.69Z"/><path class="cls-1" d="M515.93,509.69c0-6.25,2.62-9.44,6.57-9.44s6.56,3.22,6.56,9.44-2.62,9.6-6.56,9.6S515.93,515.94,515.93,509.69Zm9.11,0c0-5-1.11-6.16-2.54-6.16s-2.55,1.15-2.55,6.16,1.12,6.32,2.55,6.32S525,514.7,525,509.69Z"/><path class="cls-1" d="M531.19,509.69c0-6.25,2.62-9.44,6.57-9.44s6.56,3.22,6.56,9.44-2.62,9.6-6.56,9.6S531.19,515.94,531.19,509.69Zm9.11,0c0-5-1.11-6.16-2.54-6.16s-2.55,1.15-2.55,6.16,1.12,6.32,2.55,6.32S540.3,514.7,540.3,509.69Z"/><path class="cls-1" d="M546.45,509.69c0-6.25,2.62-9.44,6.56-9.44s6.57,3.22,6.57,9.44-2.62,9.6-6.57,9.6S546.45,515.94,546.45,509.69Zm9.11,0c0-5-1.12-6.16-2.55-6.16s-2.54,1.15-2.54,6.16S551.58,516,553,516,555.56,514.7,555.56,509.69Z"/><path class="cls-1" d="M562.65,515.52h4V504.9h-3.43v-2.64a12.57,12.57,0,0,0,4.55-1.66h3.13v14.92h3.44V519h-11.7Z"/><path class="cls-1" d="M577,509.69c0-6.25,2.62-9.44,6.57-9.44s6.57,3.22,6.57,9.44-2.63,9.6-6.57,9.6S577,515.94,577,509.69Zm9.12,0c0-5-1.12-6.16-2.55-6.16s-2.55,1.15-2.55,6.16,1.12,6.32,2.55,6.32S586.08,514.7,586.08,509.69Z"/><path class="cls-1" d="M592.22,509.69c0-6.25,2.62-9.44,6.57-9.44s6.56,3.22,6.56,9.44-2.62,9.6-6.56,9.6S592.22,515.94,592.22,509.69Zm9.11,0c0-5-1.11-6.16-2.54-6.16s-2.55,1.15-2.55,6.16,1.12,6.32,2.55,6.32S601.33,514.7,601.33,509.69Z"/><path class="cls-1" d="M608.42,515.52h4V504.9H609v-2.64a12.44,12.44,0,0,0,4.55-1.66h3.13v14.92h3.44V519h-11.7Z"/><path class="cls-1" d="M623.68,515.52h4V504.9h-3.43v-2.64a12.5,12.5,0,0,0,4.55-1.66h3.13v14.92h3.44V519h-11.7Z"/><path class="cls-1" d="M638,509.69c0-6.25,2.62-9.44,6.56-9.44s6.57,3.22,6.57,9.44-2.63,9.6-6.57,9.6S638,515.94,638,509.69Zm9.11,0c0-5-1.12-6.16-2.55-6.16s-2.55,1.15-2.55,6.16,1.12,6.32,2.55,6.32S647.11,514.7,647.11,509.69Z"/><path class="cls-1" d="M654.2,515.52h4V504.9h-3.44v-2.64a12.56,12.56,0,0,0,4.56-1.66h3.13v14.92h3.43V519H654.2Z"/><path class="cls-1" d="M669.46,515.52h4V504.9H670v-2.64a12.44,12.44,0,0,0,4.55-1.66h3.14v14.92h3.43V519H669.46Z"/><path class="cls-1" d="M683.77,509.69c0-6.25,2.62-9.44,6.56-9.44s6.57,3.22,6.57,9.44-2.62,9.6-6.57,9.6S683.77,515.94,683.77,509.69Zm9.11,0c0-5-1.12-6.16-2.55-6.16s-2.54,1.15-2.54,6.16,1.11,6.32,2.54,6.32S692.88,514.7,692.88,509.69Z"/><path class="cls-1" d="M699,509.69c0-6.25,2.62-9.44,6.56-9.44s6.57,3.22,6.57,9.44-2.62,9.6-6.57,9.6S699,515.94,699,509.69Zm9.11,0c0-5-1.12-6.16-2.55-6.16s-2.54,1.15-2.54,6.16,1.11,6.32,2.54,6.32S708.14,514.7,708.14,509.69Z"/><path class="cls-1" d="M714.28,509.69c0-6.25,2.63-9.44,6.57-9.44s6.57,3.22,6.57,9.44-2.63,9.6-6.57,9.6S714.28,515.94,714.28,509.69Zm9.12,0c0-5-1.12-6.16-2.55-6.16s-2.55,1.15-2.55,6.16,1.12,6.32,2.55,6.32S723.4,514.7,723.4,509.69Z"/><path class="cls-1" d="M730.49,515.52h4V504.9h-3.44v-2.64a12.44,12.44,0,0,0,4.55-1.66h3.14v14.92h3.43V519H730.49Z"/><path class="cls-1" d="M256.55,538.59c0-6.25,2.62-9.44,6.56-9.44s6.57,3.22,6.57,9.44-2.62,9.6-6.57,9.6S256.55,544.83,256.55,538.59Zm9.11,0c0-5-1.11-6.16-2.55-6.16s-2.54,1.15-2.54,6.16,1.11,6.32,2.54,6.32S265.66,543.6,265.66,538.59Z"/><path class="cls-1" d="M271.81,538.59c0-6.25,2.62-9.44,6.56-9.44s6.57,3.22,6.57,9.44-2.62,9.6-6.57,9.6S271.81,544.83,271.81,538.59Zm9.11,0c0-5-1.12-6.16-2.55-6.16s-2.54,1.15-2.54,6.16,1.11,6.32,2.54,6.32S280.92,543.6,280.92,538.59Z"/><path class="cls-1" d="M287.06,538.59c0-6.25,2.63-9.44,6.57-9.44s6.57,3.22,6.57,9.44-2.63,9.6-6.57,9.6S287.06,544.83,287.06,538.59Zm9.12,0c0-5-1.12-6.16-2.55-6.16s-2.55,1.15-2.55,6.16,1.12,6.32,2.55,6.32S296.18,543.6,296.18,538.59Z"/><path class="cls-1" d="M302.32,538.59c0-6.25,2.62-9.44,6.57-9.44s6.56,3.22,6.56,9.44-2.62,9.6-6.56,9.6S302.32,544.83,302.32,538.59Zm9.11,0c0-5-1.11-6.16-2.54-6.16s-2.55,1.15-2.55,6.16,1.12,6.32,2.55,6.32S311.43,543.6,311.43,538.59Z"/><path class="cls-1" d="M318.53,544.42h4V533.8H319.1v-2.64a12.26,12.26,0,0,0,4.55-1.67h3.14v14.93h3.43v3.43H318.53Z"/><path class="cls-1" d="M333.78,544.42h4V533.8h-3.43v-2.64a12.32,12.32,0,0,0,4.55-1.67H342v14.93h3.44v3.43h-11.7Z"/><path class="cls-1" d="M349,544.42h4V533.8h-3.43v-2.64a12.39,12.39,0,0,0,4.55-1.67h3.13v14.93h3.44v3.43H349Z"/><path class="cls-1" d="M363.35,538.59c0-6.25,2.63-9.44,6.57-9.44s6.57,3.22,6.57,9.44-2.63,9.6-6.57,9.6S363.35,544.83,363.35,538.59Zm9.12,0c0-5-1.12-6.16-2.55-6.16s-2.55,1.15-2.55,6.16,1.12,6.32,2.55,6.32S372.47,543.6,372.47,538.59Z"/><path class="cls-1" d="M378.61,538.59c0-6.25,2.62-9.44,6.57-9.44s6.56,3.22,6.56,9.44-2.62,9.6-6.56,9.6S378.61,544.83,378.61,538.59Zm9.11,0c0-5-1.11-6.16-2.54-6.16s-2.55,1.15-2.55,6.16,1.12,6.32,2.55,6.32S387.72,543.6,387.72,538.59Z"/><path class="cls-1" d="M394.81,544.42h4V533.8h-3.44v-2.64a12.26,12.26,0,0,0,4.55-1.67h3.14v14.93h3.43v3.43h-11.7Z"/><path class="cls-1" d="M409.13,538.59c0-6.25,2.62-9.44,6.56-9.44s6.57,3.22,6.57,9.44-2.62,9.6-6.57,9.6S409.13,544.83,409.13,538.59Zm9.11,0c0-5-1.12-6.16-2.55-6.16s-2.54,1.15-2.54,6.16,1.11,6.32,2.54,6.32S418.24,543.6,418.24,538.59Z"/><path class="cls-1" d="M424.39,538.59c0-6.25,2.62-9.44,6.56-9.44s6.57,3.22,6.57,9.44-2.62,9.6-6.57,9.6S424.39,544.83,424.39,538.59Zm9.11,0c0-5-1.12-6.16-2.55-6.16s-2.54,1.15-2.54,6.16,1.11,6.32,2.54,6.32S433.5,543.6,433.5,538.59Z"/><path class="cls-1" d="M440.59,544.42h4V533.8h-3.44v-2.64a12.38,12.38,0,0,0,4.56-1.67h3.13v14.93h3.44v3.43h-11.7Z"/><path class="cls-1" d="M454.9,538.59c0-6.25,2.62-9.44,6.57-9.44s6.56,3.22,6.56,9.44-2.62,9.6-6.56,9.6S454.9,544.83,454.9,538.59Zm9.11,0c0-5-1.11-6.16-2.54-6.16s-2.55,1.15-2.55,6.16,1.12,6.32,2.55,6.32S464,543.6,464,538.59Z"/><path class="cls-1" d="M470.16,538.59c0-6.25,2.62-9.44,6.56-9.44s6.57,3.22,6.57,9.44-2.62,9.6-6.57,9.6S470.16,544.83,470.16,538.59Zm9.11,0c0-5-1.11-6.16-2.55-6.16s-2.54,1.15-2.54,6.16,1.11,6.32,2.54,6.32S479.27,543.6,479.27,538.59Z"/><path class="cls-1" d="M486.36,544.42h4V533.8h-3.43v-2.64a12.39,12.39,0,0,0,4.55-1.67h3.13v14.93h3.44v3.43h-11.7Z"/><path class="cls-1" d="M501.62,544.42h4V533.8h-3.44v-2.64a12.38,12.38,0,0,0,4.56-1.67h3.13v14.93h3.44v3.43h-11.7Z"/><path class="cls-1" d="M515.93,538.59c0-6.25,2.62-9.44,6.57-9.44s6.56,3.22,6.56,9.44-2.62,9.6-6.56,9.6S515.93,544.83,515.93,538.59Zm9.11,0c0-5-1.11-6.16-2.54-6.16s-2.55,1.15-2.55,6.16,1.12,6.32,2.55,6.32S525,543.6,525,538.59Z"/><path class="cls-1" d="M532.13,544.42h4V533.8h-3.44v-2.64a12.26,12.26,0,0,0,4.55-1.67h3.14v14.93h3.43v3.43h-11.7Z"/><path class="cls-1" d="M546.45,538.59c0-6.25,2.62-9.44,6.56-9.44s6.57,3.22,6.57,9.44-2.62,9.6-6.57,9.6S546.45,544.83,546.45,538.59Zm9.11,0c0-5-1.12-6.16-2.55-6.16s-2.54,1.15-2.54,6.16,1.11,6.32,2.54,6.32S555.56,543.6,555.56,538.59Z"/><path class="cls-1" d="M562.65,544.42h4V533.8h-3.43v-2.64a12.39,12.39,0,0,0,4.55-1.67h3.13v14.93h3.44v3.43h-11.7Z"/><path class="cls-1" d="M577,538.59c0-6.25,2.62-9.44,6.57-9.44s6.57,3.22,6.57,9.44-2.63,9.6-6.57,9.6S577,544.83,577,538.59Zm9.12,0c0-5-1.12-6.16-2.55-6.16s-2.55,1.15-2.55,6.16,1.12,6.32,2.55,6.32S586.08,543.6,586.08,538.59Z"/><path class="cls-1" d="M593.17,544.42h4V533.8h-3.44v-2.64a12.26,12.26,0,0,0,4.55-1.67h3.14v14.93h3.43v3.43H593.17Z"/><path class="cls-1" d="M607.48,538.59c0-6.25,2.62-9.44,6.56-9.44s6.57,3.22,6.57,9.44-2.62,9.6-6.57,9.6S607.48,544.83,607.48,538.59Zm9.11,0c0-5-1.11-6.16-2.55-6.16s-2.54,1.15-2.54,6.16,1.11,6.32,2.54,6.32S616.59,543.6,616.59,538.59Z"/><path class="cls-1" d="M622.74,538.59c0-6.25,2.62-9.44,6.56-9.44s6.57,3.22,6.57,9.44-2.62,9.6-6.57,9.6S622.74,544.83,622.74,538.59Zm9.11,0c0-5-1.12-6.16-2.55-6.16s-2.54,1.15-2.54,6.16,1.11,6.32,2.54,6.32S631.85,543.6,631.85,538.59Z"/><path class="cls-1" d="M638.94,544.42h4V533.8h-3.44v-2.64a12.38,12.38,0,0,0,4.56-1.67h3.13v14.93h3.44v3.43h-11.7Z"/><path class="cls-1" d="M653.25,538.59c0-6.25,2.62-9.44,6.57-9.44s6.56,3.22,6.56,9.44-2.62,9.6-6.56,9.6S653.25,544.83,653.25,538.59Zm9.11,0c0-5-1.11-6.16-2.54-6.16s-2.55,1.15-2.55,6.16,1.12,6.32,2.55,6.32S662.36,543.6,662.36,538.59Z"/><path class="cls-1" d="M669.46,544.42h4V533.8H670v-2.64a12.26,12.26,0,0,0,4.55-1.67h3.14v14.93h3.43v3.43H669.46Z"/><path class="cls-1" d="M684.71,544.42h4V533.8h-3.43v-2.64a12.26,12.26,0,0,0,4.55-1.67H693v14.93h3.44v3.43h-11.7Z"/><path class="cls-1" d="M700,544.42h4V533.8h-3.43v-2.64a12.39,12.39,0,0,0,4.55-1.67h3.13v14.93h3.44v3.43H700Z"/><path class="cls-1" d="M714.28,538.59c0-6.25,2.63-9.44,6.57-9.44s6.57,3.22,6.57,9.44-2.63,9.6-6.57,9.6S714.28,544.83,714.28,538.59Zm9.12,0c0-5-1.12-6.16-2.55-6.16s-2.55,1.15-2.55,6.16,1.12,6.32,2.55,6.32S723.4,543.6,723.4,538.59Z"/><path class="cls-1" d="M730.49,544.42h4V533.8h-3.44v-2.64a12.26,12.26,0,0,0,4.55-1.67h3.14v14.93h3.43v3.43H730.49Z"/><path class="cls-1" d="M256.55,567.49c0-6.25,2.62-9.45,6.56-9.45s6.57,3.22,6.57,9.45-2.62,9.6-6.57,9.6S256.55,573.73,256.55,567.49Zm9.11,0c0-5-1.11-6.16-2.55-6.16s-2.54,1.15-2.54,6.16,1.11,6.31,2.54,6.31S265.66,572.49,265.66,567.49Z"/><path class="cls-1" d="M271.81,567.49c0-6.25,2.62-9.45,6.56-9.45s6.57,3.22,6.57,9.45-2.62,9.6-6.57,9.6S271.81,573.73,271.81,567.49Zm9.11,0c0-5-1.12-6.16-2.55-6.16s-2.54,1.15-2.54,6.16,1.11,6.31,2.54,6.31S280.92,572.49,280.92,567.49Z"/><path class="cls-1" d="M288,573.31h4V562.7h-3.44v-2.64a12.38,12.38,0,0,0,4.56-1.67h3.13v14.92h3.44v3.43H288Z"/><path class="cls-1" d="M302.32,567.49c0-6.25,2.62-9.45,6.57-9.45s6.56,3.22,6.56,9.45-2.62,9.6-6.56,9.6S302.32,573.73,302.32,567.49Zm9.11,0c0-5-1.11-6.16-2.54-6.16s-2.55,1.15-2.55,6.16,1.12,6.31,2.55,6.31S311.43,572.49,311.43,567.49Z"/><path class="cls-1" d="M317.58,567.49c0-6.25,2.62-9.45,6.57-9.45s6.56,3.22,6.56,9.45-2.62,9.6-6.56,9.6S317.58,573.73,317.58,567.49Zm9.11,0c0-5-1.11-6.16-2.54-6.16s-2.55,1.15-2.55,6.16,1.12,6.31,2.55,6.31S326.69,572.49,326.69,567.49Z"/><path class="cls-1" d="M333.78,573.31h4V562.7h-3.43v-2.64a12.32,12.32,0,0,0,4.55-1.67H342v14.92h3.44v3.43h-11.7Z"/><path class="cls-1" d="M349,573.31h4V562.7h-3.43v-2.64a12.39,12.39,0,0,0,4.55-1.67h3.13v14.92h3.44v3.43H349Z"/><path class="cls-1" d="M363.35,567.49c0-6.25,2.63-9.45,6.57-9.45s6.57,3.22,6.57,9.45-2.63,9.6-6.57,9.6S363.35,573.73,363.35,567.49Zm9.12,0c0-5-1.12-6.16-2.55-6.16s-2.55,1.15-2.55,6.16,1.12,6.31,2.55,6.31S372.47,572.49,372.47,567.49Z"/><path class="cls-1" d="M379.56,573.31h4V562.7h-3.44v-2.64a12.26,12.26,0,0,0,4.55-1.67h3.14v14.92h3.43v3.43H379.56Z"/><path class="cls-1" d="M394.81,573.31h4V562.7h-3.44v-2.64a12.26,12.26,0,0,0,4.55-1.67h3.14v14.92h3.43v3.43h-11.7Z"/><path class="cls-1" d="M410.07,573.31h4V562.7h-3.43v-2.64a12.32,12.32,0,0,0,4.55-1.67h3.13v14.92h3.44v3.43h-11.7Z"/><path class="cls-1" d="M424.39,567.49c0-6.25,2.62-9.45,6.56-9.45s6.57,3.22,6.57,9.45-2.62,9.6-6.57,9.6S424.39,573.73,424.39,567.49Zm9.11,0c0-5-1.12-6.16-2.55-6.16s-2.54,1.15-2.54,6.16,1.11,6.31,2.54,6.31S433.5,572.49,433.5,567.49Z"/><path class="cls-1" d="M440.59,573.31h4V562.7h-3.44v-2.64a12.38,12.38,0,0,0,4.56-1.67h3.13v14.92h3.44v3.43h-11.7Z"/><path class="cls-1" d="M455.85,573.31h4V562.7h-3.44v-2.64a12.26,12.26,0,0,0,4.55-1.67h3.14v14.92h3.43v3.43H455.85Z"/><path class="cls-1" d="M471.1,573.31h4V562.7h-3.44v-2.64a12.26,12.26,0,0,0,4.55-1.67h3.13v14.92h3.44v3.43H471.1Z"/><path class="cls-1" d="M485.42,567.49c0-6.25,2.62-9.45,6.56-9.45s6.57,3.22,6.57,9.45-2.62,9.6-6.57,9.6S485.42,573.73,485.42,567.49Zm9.11,0c0-5-1.12-6.16-2.55-6.16s-2.54,1.15-2.54,6.16,1.11,6.31,2.54,6.31S494.53,572.49,494.53,567.49Z"/><path class="cls-1" d="M501.62,573.31h4V562.7h-3.44v-2.64a12.38,12.38,0,0,0,4.56-1.67h3.13v14.92h3.44v3.43h-11.7Z"/><path class="cls-1" d="M516.88,573.31h4V562.7h-3.44v-2.64a12.26,12.26,0,0,0,4.55-1.67h3.14v14.92h3.43v3.43H516.88Z"/><path class="cls-1" d="M531.19,567.49c0-6.25,2.62-9.45,6.57-9.45s6.56,3.22,6.56,9.45-2.62,9.6-6.56,9.6S531.19,573.73,531.19,567.49Zm9.11,0c0-5-1.11-6.16-2.54-6.16s-2.55,1.15-2.55,6.16,1.12,6.31,2.55,6.31S540.3,572.49,540.3,567.49Z"/><path class="cls-1" d="M547.39,573.31h4V562.7H548v-2.64a12.26,12.26,0,0,0,4.55-1.67h3.13v14.92h3.44v3.43h-11.7Z"/><path class="cls-1" d="M562.65,573.31h4V562.7h-3.43v-2.64a12.39,12.39,0,0,0,4.55-1.67h3.13v14.92h3.44v3.43h-11.7Z"/><path class="cls-1" d="M577.91,573.31h4V562.7h-3.44v-2.64a12.38,12.38,0,0,0,4.56-1.67h3.13v14.92h3.44v3.43h-11.7Z"/><path class="cls-1" d="M593.17,573.31h4V562.7h-3.44v-2.64a12.26,12.26,0,0,0,4.55-1.67h3.14v14.92h3.43v3.43H593.17Z"/><path class="cls-1" d="M608.42,573.31h4V562.7H609v-2.64a12.26,12.26,0,0,0,4.55-1.67h3.13v14.92h3.44v3.43h-11.7Z"/><path class="cls-1" d="M622.74,567.49c0-6.25,2.62-9.45,6.56-9.45s6.57,3.22,6.57,9.45-2.62,9.6-6.57,9.6S622.74,573.73,622.74,567.49Zm9.11,0c0-5-1.12-6.16-2.55-6.16s-2.54,1.15-2.54,6.16,1.11,6.31,2.54,6.31S631.85,572.49,631.85,567.49Z"/><path class="cls-1" d="M638,567.49c0-6.25,2.62-9.45,6.56-9.45s6.57,3.22,6.57,9.45-2.63,9.6-6.57,9.6S638,573.73,638,567.49Zm9.11,0c0-5-1.12-6.16-2.55-6.16s-2.55,1.15-2.55,6.16,1.12,6.31,2.55,6.31S647.11,572.49,647.11,567.49Z"/><path class="cls-1" d="M653.25,567.49c0-6.25,2.62-9.45,6.57-9.45s6.56,3.22,6.56,9.45-2.62,9.6-6.56,9.6S653.25,573.73,653.25,567.49Zm9.11,0c0-5-1.11-6.16-2.54-6.16s-2.55,1.15-2.55,6.16,1.12,6.31,2.55,6.31S662.36,572.49,662.36,567.49Z"/><path class="cls-1" d="M669.46,573.31h4V562.7H670v-2.64a12.26,12.26,0,0,0,4.55-1.67h3.14v14.92h3.43v3.43H669.46Z"/><path class="cls-1" d="M683.77,567.49c0-6.25,2.62-9.45,6.56-9.45s6.57,3.22,6.57,9.45-2.62,9.6-6.57,9.6S683.77,573.73,683.77,567.49Zm9.11,0c0-5-1.12-6.16-2.55-6.16s-2.54,1.15-2.54,6.16,1.11,6.31,2.54,6.31S692.88,572.49,692.88,567.49Z"/><path class="cls-1" d="M699,567.49c0-6.25,2.62-9.45,6.56-9.45s6.57,3.22,6.57,9.45-2.62,9.6-6.57,9.6S699,573.73,699,567.49Zm9.11,0c0-5-1.12-6.16-2.55-6.16s-2.54,1.15-2.54,6.16,1.11,6.31,2.54,6.31S708.14,572.49,708.14,567.49Z"/><path class="cls-1" d="M714.28,567.49c0-6.25,2.63-9.45,6.57-9.45s6.57,3.22,6.57,9.45-2.63,9.6-6.57,9.6S714.28,573.73,714.28,567.49Zm9.12,0c0-5-1.12-6.16-2.55-6.16s-2.55,1.15-2.55,6.16,1.12,6.31,2.55,6.31S723.4,572.49,723.4,567.49Z"/><path class="cls-1" d="M730.49,573.31h4V562.7h-3.44v-2.64a12.26,12.26,0,0,0,4.55-1.67h3.14v14.92h3.43v3.43H730.49Z"/><path class="cls-1" d="M256.55,596.38c0-6.24,2.62-9.44,6.56-9.44s6.57,3.22,6.57,9.44-2.62,9.61-6.57,9.61S256.55,602.63,256.55,596.38Zm9.11,0c0-5-1.11-6.15-2.55-6.15s-2.54,1.15-2.54,6.15,1.11,6.32,2.54,6.32S265.66,601.39,265.66,596.38Z"/><path class="cls-1" d="M271.81,596.38c0-6.24,2.62-9.44,6.56-9.44s6.57,3.22,6.57,9.44-2.62,9.61-6.57,9.61S271.81,602.63,271.81,596.38Zm9.11,0c0-5-1.12-6.15-2.55-6.15s-2.54,1.15-2.54,6.15,1.11,6.32,2.54,6.32S280.92,601.39,280.92,596.38Z"/><path class="cls-1" d="M287.06,596.38c0-6.24,2.63-9.44,6.57-9.44s6.57,3.22,6.57,9.44-2.63,9.61-6.57,9.61S287.06,602.63,287.06,596.38Zm9.12,0c0-5-1.12-6.15-2.55-6.15s-2.55,1.15-2.55,6.15,1.12,6.32,2.55,6.32S296.18,601.39,296.18,596.38Z"/><path class="cls-1" d="M303.27,602.21h4V591.59h-3.44V589a12.74,12.74,0,0,0,4.56-1.67h3.13v14.92H315v3.43H303.27Z"/><path class="cls-1" d="M317.58,596.38c0-6.24,2.62-9.44,6.57-9.44s6.56,3.22,6.56,9.44-2.62,9.61-6.56,9.61S317.58,602.63,317.58,596.38Zm9.11,0c0-5-1.11-6.15-2.54-6.15s-2.55,1.15-2.55,6.15,1.12,6.32,2.55,6.32S326.69,601.39,326.69,596.38Z"/><path class="cls-1" d="M333.78,602.21h4V591.59h-3.43V589a12.69,12.69,0,0,0,4.55-1.67H342v14.92h3.44v3.43h-11.7Z"/><path class="cls-1" d="M349,602.21h4V591.59h-3.43V589a12.76,12.76,0,0,0,4.55-1.67h3.13v14.92h3.44v3.43H349Z"/><path class="cls-1" d="M363.35,596.38c0-6.24,2.63-9.44,6.57-9.44s6.57,3.22,6.57,9.44-2.63,9.61-6.57,9.61S363.35,602.63,363.35,596.38Zm9.12,0c0-5-1.12-6.15-2.55-6.15s-2.55,1.15-2.55,6.15,1.12,6.32,2.55,6.32S372.47,601.39,372.47,596.38Z"/><path class="cls-1" d="M379.56,602.21h4V591.59h-3.44V589a12.62,12.62,0,0,0,4.55-1.67h3.14v14.92h3.43v3.43H379.56Z"/><path class="cls-1" d="M393.87,596.38c0-6.24,2.62-9.44,6.57-9.44s6.56,3.22,6.56,9.44-2.62,9.61-6.56,9.61S393.87,602.63,393.87,596.38Zm9.11,0c0-5-1.11-6.15-2.54-6.15s-2.55,1.15-2.55,6.15,1.11,6.32,2.55,6.32S403,601.39,403,596.38Z"/><path class="cls-1" d="M409.13,596.38c0-6.24,2.62-9.44,6.56-9.44s6.57,3.22,6.57,9.44-2.62,9.61-6.57,9.61S409.13,602.63,409.13,596.38Zm9.11,0c0-5-1.12-6.15-2.55-6.15s-2.54,1.15-2.54,6.15,1.11,6.32,2.54,6.32S418.24,601.39,418.24,596.38Z"/><path class="cls-1" d="M424.39,596.38c0-6.24,2.62-9.44,6.56-9.44s6.57,3.22,6.57,9.44S434.9,606,431,606,424.39,602.63,424.39,596.38Zm9.11,0c0-5-1.12-6.15-2.55-6.15s-2.54,1.15-2.54,6.15,1.11,6.32,2.54,6.32S433.5,601.39,433.5,596.38Z"/><path class="cls-1" d="M439.64,596.38c0-6.24,2.62-9.44,6.57-9.44s6.57,3.22,6.57,9.44-2.63,9.61-6.57,9.61S439.64,602.63,439.64,596.38Zm9.11,0c0-5-1.11-6.15-2.54-6.15s-2.55,1.15-2.55,6.15,1.12,6.32,2.55,6.32S448.75,601.39,448.75,596.38Z"/><path class="cls-1" d="M454.9,596.38c0-6.24,2.62-9.44,6.57-9.44s6.56,3.22,6.56,9.44-2.62,9.61-6.56,9.61S454.9,602.63,454.9,596.38Zm9.11,0c0-5-1.11-6.15-2.54-6.15s-2.55,1.15-2.55,6.15,1.12,6.32,2.55,6.32S464,601.39,464,596.38Z"/><path class="cls-1" d="M471.1,602.21h4V591.59h-3.44V589a12.62,12.62,0,0,0,4.55-1.67h3.13v14.92h3.44v3.43H471.1Z"/><path class="cls-1" d="M486.36,602.21h4V591.59h-3.43V589a12.76,12.76,0,0,0,4.55-1.67h3.13v14.92h3.44v3.43h-11.7Z"/><path class="cls-1" d="M501.62,602.21h4V591.59h-3.44V589a12.74,12.74,0,0,0,4.56-1.67h3.13v14.92h3.44v3.43h-11.7Z"/><path class="cls-1" d="M516.88,602.21h4V591.59h-3.44V589a12.62,12.62,0,0,0,4.55-1.67h3.14v14.92h3.43v3.43H516.88Z"/><path class="cls-1" d="M531.19,596.38c0-6.24,2.62-9.44,6.57-9.44s6.56,3.22,6.56,9.44S541.7,606,537.76,606,531.19,602.63,531.19,596.38Zm9.11,0c0-5-1.11-6.15-2.54-6.15s-2.55,1.15-2.55,6.15,1.12,6.32,2.55,6.32S540.3,601.39,540.3,596.38Z"/><path class="cls-1" d="M546.45,596.38c0-6.24,2.62-9.44,6.56-9.44s6.57,3.22,6.57,9.44S557,606,553,606,546.45,602.63,546.45,596.38Zm9.11,0c0-5-1.12-6.15-2.55-6.15s-2.54,1.15-2.54,6.15,1.11,6.32,2.54,6.32S555.56,601.39,555.56,596.38Z"/><path class="cls-1" d="M562.65,602.21h4V591.59h-3.43V589a12.76,12.76,0,0,0,4.55-1.67h3.13v14.92h3.44v3.43h-11.7Z"/><path class="cls-1" d="M577.91,602.21h4V591.59h-3.44V589a12.74,12.74,0,0,0,4.56-1.67h3.13v14.92h3.44v3.43h-11.7Z"/><path class="cls-1" d="M592.22,596.38c0-6.24,2.62-9.44,6.57-9.44s6.56,3.22,6.56,9.44-2.62,9.61-6.56,9.61S592.22,602.63,592.22,596.38Zm9.11,0c0-5-1.11-6.15-2.54-6.15s-2.55,1.15-2.55,6.15,1.12,6.32,2.55,6.32S601.33,601.39,601.33,596.38Z"/><path class="cls-1" d="M608.42,602.21h4V591.59H609V589a12.62,12.62,0,0,0,4.55-1.67h3.13v14.92h3.44v3.43h-11.7Z"/><path class="cls-1" d="M623.68,602.21h4V591.59h-3.43V589a12.69,12.69,0,0,0,4.55-1.67h3.13v14.92h3.44v3.43h-11.7Z"/><path class="cls-1" d="M638,596.38c0-6.24,2.62-9.44,6.56-9.44s6.57,3.22,6.57,9.44S648.5,606,644.56,606,638,602.63,638,596.38Zm9.11,0c0-5-1.12-6.15-2.55-6.15s-2.55,1.15-2.55,6.15,1.12,6.32,2.55,6.32S647.11,601.39,647.11,596.38Z"/><path class="cls-1" d="M653.25,596.38c0-6.24,2.62-9.44,6.57-9.44s6.56,3.22,6.56,9.44-2.62,9.61-6.56,9.61S653.25,602.63,653.25,596.38Zm9.11,0c0-5-1.11-6.15-2.54-6.15s-2.55,1.15-2.55,6.15,1.12,6.32,2.55,6.32S662.36,601.39,662.36,596.38Z"/><path class="cls-1" d="M668.51,596.38c0-6.24,2.62-9.44,6.57-9.44s6.56,3.22,6.56,9.44S679,606,675.08,606,668.51,602.63,668.51,596.38Zm9.11,0c0-5-1.11-6.15-2.54-6.15s-2.55,1.15-2.55,6.15,1.12,6.32,2.55,6.32S677.62,601.39,677.62,596.38Z"/><path class="cls-1" d="M683.77,596.38c0-6.24,2.62-9.44,6.56-9.44s6.57,3.22,6.57,9.44-2.62,9.61-6.57,9.61S683.77,602.63,683.77,596.38Zm9.11,0c0-5-1.12-6.15-2.55-6.15s-2.54,1.15-2.54,6.15,1.11,6.32,2.54,6.32S692.88,601.39,692.88,596.38Z"/><path class="cls-1" d="M700,602.21h4V591.59h-3.43V589a12.76,12.76,0,0,0,4.55-1.67h3.13v14.92h3.44v3.43H700Z"/><path class="cls-1" d="M714.28,596.38c0-6.24,2.63-9.44,6.57-9.44s6.57,3.22,6.57,9.44-2.63,9.61-6.57,9.61S714.28,602.63,714.28,596.38Zm9.12,0c0-5-1.12-6.15-2.55-6.15s-2.55,1.15-2.55,6.15,1.12,6.32,2.55,6.32S723.4,601.39,723.4,596.38Z"/><path class="cls-1" d="M729.54,596.38c0-6.24,2.62-9.44,6.57-9.44s6.56,3.22,6.56,9.44-2.62,9.61-6.56,9.61S729.54,602.63,729.54,596.38Zm9.11,0c0-5-1.11-6.15-2.54-6.15s-2.55,1.15-2.55,6.15,1.12,6.32,2.55,6.32S738.65,601.39,738.65,596.38Z"/><path class="cls-1" d="M257.49,631.11h4V620.49h-3.44v-2.64a12.26,12.26,0,0,0,4.55-1.67h3.13v14.93h3.44v3.43h-11.7Z"/><path class="cls-1" d="M271.81,625.28c0-6.25,2.62-9.44,6.56-9.44s6.57,3.22,6.57,9.44-2.62,9.6-6.57,9.6S271.81,631.53,271.81,625.28Zm9.11,0c0-5-1.12-6.16-2.55-6.16s-2.54,1.15-2.54,6.16,1.11,6.32,2.54,6.32S280.92,630.29,280.92,625.28Z"/><path class="cls-1" d="M287.06,625.28c0-6.25,2.63-9.44,6.57-9.44s6.57,3.22,6.57,9.44-2.63,9.6-6.57,9.6S287.06,631.53,287.06,625.28Zm9.12,0c0-5-1.12-6.16-2.55-6.16s-2.55,1.15-2.55,6.16,1.12,6.32,2.55,6.32S296.18,630.29,296.18,625.28Z"/><path class="cls-1" d="M303.27,631.11h4V620.49h-3.44v-2.64a12.38,12.38,0,0,0,4.56-1.67h3.13v14.93H315v3.43H303.27Z"/><path class="cls-1" d="M317.58,625.28c0-6.25,2.62-9.44,6.57-9.44s6.56,3.22,6.56,9.44-2.62,9.6-6.56,9.6S317.58,631.53,317.58,625.28Zm9.11,0c0-5-1.11-6.16-2.54-6.16s-2.55,1.15-2.55,6.16,1.12,6.32,2.55,6.32S326.69,630.29,326.69,625.28Z"/><path class="cls-1" d="M333.78,631.11h4V620.49h-3.43v-2.64a12.32,12.32,0,0,0,4.55-1.67H342v14.93h3.44v3.43h-11.7Z"/><path class="cls-1" d="M348.1,625.28c0-6.25,2.62-9.44,6.56-9.44s6.57,3.22,6.57,9.44-2.62,9.6-6.57,9.6S348.1,631.53,348.1,625.28Zm9.11,0c0-5-1.12-6.16-2.55-6.16s-2.54,1.15-2.54,6.16,1.11,6.32,2.54,6.32S357.21,630.29,357.21,625.28Z"/><path class="cls-1" d="M364.3,631.11h4V620.49h-3.44v-2.64a12.38,12.38,0,0,0,4.56-1.67h3.13v14.93H376v3.43H364.3Z"/><path class="cls-1" d="M379.56,631.11h4V620.49h-3.44v-2.64a12.26,12.26,0,0,0,4.55-1.67h3.14v14.93h3.43v3.43H379.56Z"/><path class="cls-1" d="M394.81,631.11h4V620.49h-3.44v-2.64a12.26,12.26,0,0,0,4.55-1.67h3.14v14.93h3.43v3.43h-11.7Z"/><path class="cls-1" d="M409.13,625.28c0-6.25,2.62-9.44,6.56-9.44s6.57,3.22,6.57,9.44-2.62,9.6-6.57,9.6S409.13,631.53,409.13,625.28Zm9.11,0c0-5-1.12-6.16-2.55-6.16s-2.54,1.15-2.54,6.16,1.11,6.32,2.54,6.32S418.24,630.29,418.24,625.28Z"/><path class="cls-1" d="M424.39,625.28c0-6.25,2.62-9.44,6.56-9.44s6.57,3.22,6.57,9.44-2.62,9.6-6.57,9.6S424.39,631.53,424.39,625.28Zm9.11,0c0-5-1.12-6.16-2.55-6.16s-2.54,1.15-2.54,6.16,1.11,6.32,2.54,6.32S433.5,630.29,433.5,625.28Z"/><path class="cls-1" d="M440.59,631.11h4V620.49h-3.44v-2.64a12.38,12.38,0,0,0,4.56-1.67h3.13v14.93h3.44v3.43h-11.7Z"/><path class="cls-1" d="M455.85,631.11h4V620.49h-3.44v-2.64a12.26,12.26,0,0,0,4.55-1.67h3.14v14.93h3.43v3.43H455.85Z"/><path class="cls-1" d="M470.16,625.28c0-6.25,2.62-9.44,6.56-9.44s6.57,3.22,6.57,9.44-2.62,9.6-6.57,9.6S470.16,631.53,470.16,625.28Zm9.11,0c0-5-1.11-6.16-2.55-6.16s-2.54,1.15-2.54,6.16,1.11,6.32,2.54,6.32S479.27,630.29,479.27,625.28Z"/><path class="cls-1" d="M486.36,631.11h4V620.49h-3.43v-2.64a12.39,12.39,0,0,0,4.55-1.67h3.13v14.93h3.44v3.43h-11.7Z"/><path class="cls-1" d="M500.67,625.28c0-6.25,2.63-9.44,6.57-9.44s6.57,3.22,6.57,9.44-2.63,9.6-6.57,9.6S500.67,631.53,500.67,625.28Zm9.12,0c0-5-1.12-6.16-2.55-6.16s-2.55,1.15-2.55,6.16,1.12,6.32,2.55,6.32S509.79,630.29,509.79,625.28Z"/><path class="cls-1" d="M516.88,631.11h4V620.49h-3.44v-2.64a12.26,12.26,0,0,0,4.55-1.67h3.14v14.93h3.43v3.43H516.88Z"/><path class="cls-1" d="M531.19,625.28c0-6.25,2.62-9.44,6.57-9.44s6.56,3.22,6.56,9.44-2.62,9.6-6.56,9.6S531.19,631.53,531.19,625.28Zm9.11,0c0-5-1.11-6.16-2.54-6.16s-2.55,1.15-2.55,6.16,1.12,6.32,2.55,6.32S540.3,630.29,540.3,625.28Z"/><path class="cls-1" d="M546.45,625.28c0-6.25,2.62-9.44,6.56-9.44s6.57,3.22,6.57,9.44-2.62,9.6-6.57,9.6S546.45,631.53,546.45,625.28Zm9.11,0c0-5-1.12-6.16-2.55-6.16s-2.54,1.15-2.54,6.16,1.11,6.32,2.54,6.32S555.56,630.29,555.56,625.28Z"/><path class="cls-1" d="M561.71,625.28c0-6.25,2.62-9.44,6.56-9.44s6.57,3.22,6.57,9.44-2.62,9.6-6.57,9.6S561.71,631.53,561.71,625.28Zm9.11,0c0-5-1.12-6.16-2.55-6.16s-2.54,1.15-2.54,6.16,1.11,6.32,2.54,6.32S570.82,630.29,570.82,625.28Z"/><path class="cls-1" d="M577,625.28c0-6.25,2.62-9.44,6.57-9.44s6.57,3.22,6.57,9.44-2.63,9.6-6.57,9.6S577,631.53,577,625.28Zm9.12,0c0-5-1.12-6.16-2.55-6.16s-2.55,1.15-2.55,6.16,1.12,6.32,2.55,6.32S586.08,630.29,586.08,625.28Z"/><path class="cls-1" d="M593.17,631.11h4V620.49h-3.44v-2.64a12.26,12.26,0,0,0,4.55-1.67h3.14v14.93h3.43v3.43H593.17Z"/><path class="cls-1" d="M608.42,631.11h4V620.49H609v-2.64a12.26,12.26,0,0,0,4.55-1.67h3.13v14.93h3.44v3.43h-11.7Z"/><path class="cls-1" d="M623.68,631.11h4V620.49h-3.43v-2.64a12.32,12.32,0,0,0,4.55-1.67h3.13v14.93h3.44v3.43h-11.7Z"/><path class="cls-1" d="M638,625.28c0-6.25,2.62-9.44,6.56-9.44s6.57,3.22,6.57,9.44-2.63,9.6-6.57,9.6S638,631.53,638,625.28Zm9.11,0c0-5-1.12-6.16-2.55-6.16s-2.55,1.15-2.55,6.16,1.12,6.32,2.55,6.32S647.11,630.29,647.11,625.28Z"/><path class="cls-1" d="M654.2,631.11h4V620.49h-3.44v-2.64a12.38,12.38,0,0,0,4.56-1.67h3.13v14.93h3.43v3.43H654.2Z"/><path class="cls-1" d="M668.51,625.28c0-6.25,2.62-9.44,6.57-9.44s6.56,3.22,6.56,9.44-2.62,9.6-6.56,9.6S668.51,631.53,668.51,625.28Zm9.11,0c0-5-1.11-6.16-2.54-6.16s-2.55,1.15-2.55,6.16,1.12,6.32,2.55,6.32S677.62,630.29,677.62,625.28Z"/><path class="cls-1" d="M683.77,625.28c0-6.25,2.62-9.44,6.56-9.44s6.57,3.22,6.57,9.44-2.62,9.6-6.57,9.6S683.77,631.53,683.77,625.28Zm9.11,0c0-5-1.12-6.16-2.55-6.16s-2.54,1.15-2.54,6.16,1.11,6.32,2.54,6.32S692.88,630.29,692.88,625.28Z"/><path class="cls-1" d="M699,625.28c0-6.25,2.62-9.44,6.56-9.44s6.57,3.22,6.57,9.44-2.62,9.6-6.57,9.6S699,631.53,699,625.28Zm9.11,0c0-5-1.12-6.16-2.55-6.16s-2.54,1.15-2.54,6.16,1.11,6.32,2.54,6.32S708.14,630.29,708.14,625.28Z"/><path class="cls-1" d="M714.28,625.28c0-6.25,2.63-9.44,6.57-9.44s6.57,3.22,6.57,9.44-2.63,9.6-6.57,9.6S714.28,631.53,714.28,625.28Zm9.12,0c0-5-1.12-6.16-2.55-6.16s-2.55,1.15-2.55,6.16,1.12,6.32,2.55,6.32S723.4,630.29,723.4,625.28Z"/><path class="cls-1" d="M729.54,625.28c0-6.25,2.62-9.44,6.57-9.44s6.56,3.22,6.56,9.44-2.62,9.6-6.56,9.6S729.54,631.53,729.54,625.28Zm9.11,0c0-5-1.11-6.16-2.54-6.16s-2.55,1.15-2.55,6.16,1.12,6.32,2.55,6.32S738.65,630.29,738.65,625.28Z"/><path class="cls-1" d="M257.49,660h4V649.39h-3.44v-2.64a12.26,12.26,0,0,0,4.55-1.67h3.13V660h3.44v3.43h-11.7Z"/><path class="cls-1" d="M271.81,654.18c0-6.25,2.62-9.44,6.56-9.44s6.57,3.22,6.57,9.44-2.62,9.6-6.57,9.6S271.81,660.42,271.81,654.18Zm9.11,0c0-5-1.12-6.16-2.55-6.16s-2.54,1.15-2.54,6.16,1.11,6.32,2.54,6.32S280.92,659.19,280.92,654.18Z"/><path class="cls-1" d="M287.06,654.18c0-6.25,2.63-9.44,6.57-9.44s6.57,3.22,6.57,9.44-2.63,9.6-6.57,9.6S287.06,660.42,287.06,654.18Zm9.12,0c0-5-1.12-6.16-2.55-6.16s-2.55,1.15-2.55,6.16,1.12,6.32,2.55,6.32S296.18,659.19,296.18,654.18Z"/><path class="cls-1" d="M303.27,660h4V649.39h-3.44v-2.64a12.38,12.38,0,0,0,4.56-1.67h3.13V660H315v3.43H303.27Z"/><path class="cls-1" d="M318.53,660h4V649.39H319.1v-2.64a12.26,12.26,0,0,0,4.55-1.67h3.14V660h3.43v3.43H318.53Z"/><path class="cls-1" d="M333.78,660h4V649.39h-3.43v-2.64a12.32,12.32,0,0,0,4.55-1.67H342V660h3.44v3.43h-11.7Z"/><path class="cls-1" d="M348.1,654.18c0-6.25,2.62-9.44,6.56-9.44s6.57,3.22,6.57,9.44-2.62,9.6-6.57,9.6S348.1,660.42,348.1,654.18Zm9.11,0c0-5-1.12-6.16-2.55-6.16s-2.54,1.15-2.54,6.16,1.11,6.32,2.54,6.32S357.21,659.19,357.21,654.18Z"/><path class="cls-1" d="M364.3,660h4V649.39h-3.44v-2.64a12.38,12.38,0,0,0,4.56-1.67h3.13V660H376v3.43H364.3Z"/><path class="cls-1" d="M378.61,654.18c0-6.25,2.62-9.44,6.57-9.44s6.56,3.22,6.56,9.44-2.62,9.6-6.56,9.6S378.61,660.42,378.61,654.18Zm9.11,0c0-5-1.11-6.16-2.54-6.16s-2.55,1.15-2.55,6.16,1.12,6.32,2.55,6.32S387.72,659.19,387.72,654.18Z"/><path class="cls-1" d="M393.87,654.18c0-6.25,2.62-9.44,6.57-9.44S407,648,407,654.18s-2.62,9.6-6.56,9.6S393.87,660.42,393.87,654.18Zm9.11,0c0-5-1.11-6.16-2.54-6.16s-2.55,1.15-2.55,6.16,1.11,6.32,2.55,6.32S403,659.19,403,654.18Z"/><path class="cls-1" d="M410.07,660h4V649.39h-3.43v-2.64a12.32,12.32,0,0,0,4.55-1.67h3.13V660h3.44v3.43h-11.7Z"/><path class="cls-1" d="M424.39,654.18c0-6.25,2.62-9.44,6.56-9.44s6.57,3.22,6.57,9.44-2.62,9.6-6.57,9.6S424.39,660.42,424.39,654.18Zm9.11,0c0-5-1.12-6.16-2.55-6.16s-2.54,1.15-2.54,6.16,1.11,6.32,2.54,6.32S433.5,659.19,433.5,654.18Z"/><path class="cls-1" d="M440.59,660h4V649.39h-3.44v-2.64a12.38,12.38,0,0,0,4.56-1.67h3.13V660h3.44v3.43h-11.7Z"/><path class="cls-1" d="M454.9,654.18c0-6.25,2.62-9.44,6.57-9.44S468,648,468,654.18s-2.62,9.6-6.56,9.6S454.9,660.42,454.9,654.18Zm9.11,0c0-5-1.11-6.16-2.54-6.16s-2.55,1.15-2.55,6.16,1.12,6.32,2.55,6.32S464,659.19,464,654.18Z"/><path class="cls-1" d="M471.1,660h4V649.39h-3.44v-2.64a12.26,12.26,0,0,0,4.55-1.67h3.13V660h3.44v3.43H471.1Z"/><path class="cls-1" d="M485.42,654.18c0-6.25,2.62-9.44,6.56-9.44s6.57,3.22,6.57,9.44-2.62,9.6-6.57,9.6S485.42,660.42,485.42,654.18Zm9.11,0c0-5-1.12-6.16-2.55-6.16s-2.54,1.15-2.54,6.16,1.11,6.32,2.54,6.32S494.53,659.19,494.53,654.18Z"/><path class="cls-1" d="M500.67,654.18c0-6.25,2.63-9.44,6.57-9.44s6.57,3.22,6.57,9.44-2.63,9.6-6.57,9.6S500.67,660.42,500.67,654.18Zm9.12,0c0-5-1.12-6.16-2.55-6.16s-2.55,1.15-2.55,6.16,1.12,6.32,2.55,6.32S509.79,659.19,509.79,654.18Z"/><path class="cls-1" d="M515.93,654.18c0-6.25,2.62-9.44,6.57-9.44s6.56,3.22,6.56,9.44-2.62,9.6-6.56,9.6S515.93,660.42,515.93,654.18Zm9.11,0c0-5-1.11-6.16-2.54-6.16s-2.55,1.15-2.55,6.16,1.12,6.32,2.55,6.32S525,659.19,525,654.18Z"/><path class="cls-1" d="M532.13,660h4V649.39h-3.44v-2.64a12.26,12.26,0,0,0,4.55-1.67h3.14V660h3.43v3.43h-11.7Z"/><path class="cls-1" d="M547.39,660h4V649.39H548v-2.64a12.26,12.26,0,0,0,4.55-1.67h3.13V660h3.44v3.43h-11.7Z"/><path class="cls-1" d="M561.71,654.18c0-6.25,2.62-9.44,6.56-9.44s6.57,3.22,6.57,9.44-2.62,9.6-6.57,9.6S561.71,660.42,561.71,654.18Zm9.11,0c0-5-1.12-6.16-2.55-6.16s-2.54,1.15-2.54,6.16,1.11,6.32,2.54,6.32S570.82,659.19,570.82,654.18Z"/><path class="cls-1" d="M577.91,660h4V649.39h-3.44v-2.64a12.38,12.38,0,0,0,4.56-1.67h3.13V660h3.44v3.43h-11.7Z"/><path class="cls-1" d="M593.17,660h4V649.39h-3.44v-2.64a12.26,12.26,0,0,0,4.55-1.67h3.14V660h3.43v3.43H593.17Z"/><path class="cls-1" d="M608.42,660h4V649.39H609v-2.64a12.26,12.26,0,0,0,4.55-1.67h3.13V660h3.44v3.43h-11.7Z"/><path class="cls-1" d="M622.74,654.18c0-6.25,2.62-9.44,6.56-9.44s6.57,3.22,6.57,9.44-2.62,9.6-6.57,9.6S622.74,660.42,622.74,654.18Zm9.11,0c0-5-1.12-6.16-2.55-6.16s-2.54,1.15-2.54,6.16,1.11,6.32,2.54,6.32S631.85,659.19,631.85,654.18Z"/><path class="cls-1" d="M638,654.18c0-6.25,2.62-9.44,6.56-9.44s6.57,3.22,6.57,9.44-2.63,9.6-6.57,9.6S638,660.42,638,654.18Zm9.11,0c0-5-1.12-6.16-2.55-6.16s-2.55,1.15-2.55,6.16,1.12,6.32,2.55,6.32S647.11,659.19,647.11,654.18Z"/><path class="cls-1" d="M654.2,660h4V649.39h-3.44v-2.64a12.38,12.38,0,0,0,4.56-1.67h3.13V660h3.43v3.43H654.2Z"/><path class="cls-1" d="M668.51,654.18c0-6.25,2.62-9.44,6.57-9.44s6.56,3.22,6.56,9.44-2.62,9.6-6.56,9.6S668.51,660.42,668.51,654.18Zm9.11,0c0-5-1.11-6.16-2.54-6.16s-2.55,1.15-2.55,6.16,1.12,6.32,2.55,6.32S677.62,659.19,677.62,654.18Z"/><path class="cls-1" d="M684.71,660h4V649.39h-3.43v-2.64a12.26,12.26,0,0,0,4.55-1.67H693V660h3.44v3.43h-11.7Z"/><path class="cls-1" d="M699,654.18c0-6.25,2.62-9.44,6.56-9.44s6.57,3.22,6.57,9.44-2.62,9.6-6.57,9.6S699,660.42,699,654.18Zm9.11,0c0-5-1.12-6.16-2.55-6.16s-2.54,1.15-2.54,6.16,1.11,6.32,2.54,6.32S708.14,659.19,708.14,654.18Z"/><path class="cls-1" d="M715.23,660h4V649.39H715.8v-2.64a12.38,12.38,0,0,0,4.56-1.67h3.13V660h3.44v3.43h-11.7Z"/><path class="cls-1" d="M730.49,660h4V649.39h-3.44v-2.64a12.26,12.26,0,0,0,4.55-1.67h3.14V660h3.43v3.43H730.49Z"/><path class="cls-1" d="M257.49,688.9h4V678.29h-3.44v-2.64a12.26,12.26,0,0,0,4.55-1.67h3.13V688.9h3.44v3.43h-11.7Z"/><path class="cls-1" d="M272.75,688.9h4V678.29h-3.43v-2.64a12.39,12.39,0,0,0,4.55-1.67H281V688.9h3.44v3.43h-11.7Z"/><path class="cls-1" d="M287.06,683.08c0-6.25,2.63-9.45,6.57-9.45s6.57,3.22,6.57,9.45-2.63,9.6-6.57,9.6S287.06,689.32,287.06,683.08Zm9.12,0c0-5-1.12-6.16-2.55-6.16s-2.55,1.15-2.55,6.16,1.12,6.31,2.55,6.31S296.18,688.08,296.18,683.08Z"/><path class="cls-1" d="M303.27,688.9h4V678.29h-3.44v-2.64A12.38,12.38,0,0,0,308.4,674h3.13V688.9H315v3.43H303.27Z"/><path class="cls-1" d="M317.58,683.08c0-6.25,2.62-9.45,6.57-9.45s6.56,3.22,6.56,9.45-2.62,9.6-6.56,9.6S317.58,689.32,317.58,683.08Zm9.11,0c0-5-1.11-6.16-2.54-6.16s-2.55,1.15-2.55,6.16,1.12,6.31,2.55,6.31S326.69,688.08,326.69,683.08Z"/><path class="cls-1" d="M332.84,683.08c0-6.25,2.62-9.45,6.56-9.45s6.57,3.22,6.57,9.45-2.62,9.6-6.57,9.6S332.84,689.32,332.84,683.08Zm9.11,0c0-5-1.12-6.16-2.55-6.16s-2.54,1.15-2.54,6.16,1.11,6.31,2.54,6.31S342,688.08,342,683.08Z"/><path class="cls-1" d="M349,688.9h4V678.29h-3.43v-2.64a12.39,12.39,0,0,0,4.55-1.67h3.13V688.9h3.44v3.43H349Z"/><path class="cls-1" d="M364.3,688.9h4V678.29h-3.44v-2.64a12.38,12.38,0,0,0,4.56-1.67h3.13V688.9H376v3.43H364.3Z"/><path class="cls-1" d="M378.61,683.08c0-6.25,2.62-9.45,6.57-9.45s6.56,3.22,6.56,9.45-2.62,9.6-6.56,9.6S378.61,689.32,378.61,683.08Zm9.11,0c0-5-1.11-6.16-2.54-6.16s-2.55,1.15-2.55,6.16,1.12,6.31,2.55,6.31S387.72,688.08,387.72,683.08Z"/><path class="cls-1" d="M394.81,688.9h4V678.29h-3.44v-2.64a12.26,12.26,0,0,0,4.55-1.67h3.14V688.9h3.43v3.43h-11.7Z"/><path class="cls-1" d="M410.07,688.9h4V678.29h-3.43v-2.64A12.32,12.32,0,0,0,415.2,674h3.13V688.9h3.44v3.43h-11.7Z"/><path class="cls-1" d="M424.39,683.08c0-6.25,2.62-9.45,6.56-9.45s6.57,3.22,6.57,9.45-2.62,9.6-6.57,9.6S424.39,689.32,424.39,683.08Zm9.11,0c0-5-1.12-6.16-2.55-6.16s-2.54,1.15-2.54,6.16,1.11,6.31,2.54,6.31S433.5,688.08,433.5,683.08Z"/><path class="cls-1" d="M440.59,688.9h4V678.29h-3.44v-2.64a12.38,12.38,0,0,0,4.56-1.67h3.13V688.9h3.44v3.43h-11.7Z"/><path class="cls-1" d="M454.9,683.08c0-6.25,2.62-9.45,6.57-9.45s6.56,3.22,6.56,9.45-2.62,9.6-6.56,9.6S454.9,689.32,454.9,683.08Zm9.11,0c0-5-1.11-6.16-2.54-6.16s-2.55,1.15-2.55,6.16,1.12,6.31,2.55,6.31S464,688.08,464,683.08Z"/><path class="cls-1" d="M470.16,683.08c0-6.25,2.62-9.45,6.56-9.45s6.57,3.22,6.57,9.45-2.62,9.6-6.57,9.6S470.16,689.32,470.16,683.08Zm9.11,0c0-5-1.11-6.16-2.55-6.16s-2.54,1.15-2.54,6.16,1.11,6.31,2.54,6.31S479.27,688.08,479.27,683.08Z"/><path class="cls-1" d="M485.42,683.08c0-6.25,2.62-9.45,6.56-9.45s6.57,3.22,6.57,9.45-2.62,9.6-6.57,9.6S485.42,689.32,485.42,683.08Zm9.11,0c0-5-1.12-6.16-2.55-6.16s-2.54,1.15-2.54,6.16,1.11,6.31,2.54,6.31S494.53,688.08,494.53,683.08Z"/><path class="cls-1" d="M500.67,683.08c0-6.25,2.63-9.45,6.57-9.45s6.57,3.22,6.57,9.45-2.63,9.6-6.57,9.6S500.67,689.32,500.67,683.08Zm9.12,0c0-5-1.12-6.16-2.55-6.16s-2.55,1.15-2.55,6.16,1.12,6.31,2.55,6.31S509.79,688.08,509.79,683.08Z"/><path class="cls-1" d="M516.88,688.9h4V678.29h-3.44v-2.64A12.26,12.26,0,0,0,522,674h3.14V688.9h3.43v3.43H516.88Z"/><path class="cls-1" d="M532.13,688.9h4V678.29h-3.44v-2.64a12.26,12.26,0,0,0,4.55-1.67h3.14V688.9h3.43v3.43h-11.7Z"/><path class="cls-1" d="M547.39,688.9h4V678.29H548v-2.64a12.26,12.26,0,0,0,4.55-1.67h3.13V688.9h3.44v3.43h-11.7Z"/><path class="cls-1" d="M562.65,688.9h4V678.29h-3.43v-2.64a12.39,12.39,0,0,0,4.55-1.67h3.13V688.9h3.44v3.43h-11.7Z"/><path class="cls-1" d="M577,683.08c0-6.25,2.62-9.45,6.57-9.45s6.57,3.22,6.57,9.45-2.63,9.6-6.57,9.6S577,689.32,577,683.08Zm9.12,0c0-5-1.12-6.16-2.55-6.16s-2.55,1.15-2.55,6.16,1.12,6.31,2.55,6.31S586.08,688.08,586.08,683.08Z"/><path class="cls-1" d="M593.17,688.9h4V678.29h-3.44v-2.64a12.26,12.26,0,0,0,4.55-1.67h3.14V688.9h3.43v3.43H593.17Z"/><path class="cls-1" d="M608.42,688.9h4V678.29H609v-2.64a12.26,12.26,0,0,0,4.55-1.67h3.13V688.9h3.44v3.43h-11.7Z"/><path class="cls-1" d="M623.68,688.9h4V678.29h-3.43v-2.64a12.32,12.32,0,0,0,4.55-1.67h3.13V688.9h3.44v3.43h-11.7Z"/><path class="cls-1" d="M638,683.08c0-6.25,2.62-9.45,6.56-9.45s6.57,3.22,6.57,9.45-2.63,9.6-6.57,9.6S638,689.32,638,683.08Zm9.11,0c0-5-1.12-6.16-2.55-6.16s-2.55,1.15-2.55,6.16,1.12,6.31,2.55,6.31S647.11,688.08,647.11,683.08Z"/><path class="cls-1" d="M653.25,683.08c0-6.25,2.62-9.45,6.57-9.45s6.56,3.22,6.56,9.45-2.62,9.6-6.56,9.6S653.25,689.32,653.25,683.08Zm9.11,0c0-5-1.11-6.16-2.54-6.16s-2.55,1.15-2.55,6.16,1.12,6.31,2.55,6.31S662.36,688.08,662.36,683.08Z"/><path class="cls-1" d="M668.51,683.08c0-6.25,2.62-9.45,6.57-9.45s6.56,3.22,6.56,9.45-2.62,9.6-6.56,9.6S668.51,689.32,668.51,683.08Zm9.11,0c0-5-1.11-6.16-2.54-6.16s-2.55,1.15-2.55,6.16,1.12,6.31,2.55,6.31S677.62,688.08,677.62,683.08Z"/><path class="cls-1" d="M684.71,688.9h4V678.29h-3.43v-2.64a12.26,12.26,0,0,0,4.55-1.67H693V688.9h3.44v3.43h-11.7Z"/><path class="cls-1" d="M700,688.9h4V678.29h-3.43v-2.64A12.39,12.39,0,0,0,705.1,674h3.13V688.9h3.44v3.43H700Z"/><path class="cls-1" d="M714.28,683.08c0-6.25,2.63-9.45,6.57-9.45s6.57,3.22,6.57,9.45-2.63,9.6-6.57,9.6S714.28,689.32,714.28,683.08Zm9.12,0c0-5-1.12-6.16-2.55-6.16s-2.55,1.15-2.55,6.16,1.12,6.31,2.55,6.31S723.4,688.08,723.4,683.08Z"/><path class="cls-1" d="M729.54,683.08c0-6.25,2.62-9.45,6.57-9.45s6.56,3.22,6.56,9.45-2.62,9.6-6.56,9.6S729.54,689.32,729.54,683.08Zm9.11,0c0-5-1.11-6.16-2.54-6.16s-2.55,1.15-2.55,6.16,1.12,6.31,2.55,6.31S738.65,688.08,738.65,683.08Z"/><path class="cls-1" d="M256.55,712c0-6.24,2.62-9.44,6.56-9.44s6.57,3.22,6.57,9.44-2.62,9.61-6.57,9.61S256.55,718.22,256.55,712Zm9.11,0c0-5-1.11-6.15-2.55-6.15s-2.54,1.14-2.54,6.15,1.11,6.32,2.54,6.32S265.66,717,265.66,712Z"/><path class="cls-1" d="M271.81,712c0-6.24,2.62-9.44,6.56-9.44s6.57,3.22,6.57,9.44-2.62,9.61-6.57,9.61S271.81,718.22,271.81,712Zm9.11,0c0-5-1.12-6.15-2.55-6.15s-2.54,1.14-2.54,6.15,1.11,6.32,2.54,6.32S280.92,717,280.92,712Z"/><path class="cls-1" d="M288,717.8h4V707.18h-3.44v-2.63a12.74,12.74,0,0,0,4.56-1.67h3.13V717.8h3.44v3.43H288Z"/><path class="cls-1" d="M302.32,712c0-6.24,2.62-9.44,6.57-9.44s6.56,3.22,6.56,9.44-2.62,9.61-6.56,9.61S302.32,718.22,302.32,712Zm9.11,0c0-5-1.11-6.15-2.54-6.15s-2.55,1.14-2.55,6.15,1.12,6.32,2.55,6.32S311.43,717,311.43,712Z"/><path class="cls-1" d="M318.53,717.8h4V707.18H319.1v-2.63a12.62,12.62,0,0,0,4.55-1.67h3.14V717.8h3.43v3.43H318.53Z"/><path class="cls-1" d="M333.78,717.8h4V707.18h-3.43v-2.63a12.69,12.69,0,0,0,4.55-1.67H342V717.8h3.44v3.43h-11.7Z"/><path class="cls-1" d="M349,717.8h4V707.18h-3.43v-2.63a12.76,12.76,0,0,0,4.55-1.67h3.13V717.8h3.44v3.43H349Z"/><path class="cls-1" d="M363.35,712c0-6.24,2.63-9.44,6.57-9.44s6.57,3.22,6.57,9.44-2.63,9.61-6.57,9.61S363.35,718.22,363.35,712Zm9.12,0c0-5-1.12-6.15-2.55-6.15s-2.55,1.14-2.55,6.15,1.12,6.32,2.55,6.32S372.47,717,372.47,712Z"/><path class="cls-1" d="M379.56,717.8h4V707.18h-3.44v-2.63a12.62,12.62,0,0,0,4.55-1.67h3.14V717.8h3.43v3.43H379.56Z"/><path class="cls-1" d="M394.81,717.8h4V707.18h-3.44v-2.63a12.62,12.62,0,0,0,4.55-1.67h3.14V717.8h3.43v3.43h-11.7Z"/><path class="cls-1" d="M410.07,717.8h4V707.18h-3.43v-2.63a12.69,12.69,0,0,0,4.55-1.67h3.13V717.8h3.44v3.43h-11.7Z"/><path class="cls-1" d="M424.39,712c0-6.24,2.62-9.44,6.56-9.44s6.57,3.22,6.57,9.44-2.62,9.61-6.57,9.61S424.39,718.22,424.39,712Zm9.11,0c0-5-1.12-6.15-2.55-6.15s-2.54,1.14-2.54,6.15,1.11,6.32,2.54,6.32S433.5,717,433.5,712Z"/><path class="cls-1" d="M439.64,712c0-6.24,2.62-9.44,6.57-9.44s6.57,3.22,6.57,9.44-2.63,9.61-6.57,9.61S439.64,718.22,439.64,712Zm9.11,0c0-5-1.11-6.15-2.54-6.15s-2.55,1.14-2.55,6.15,1.12,6.32,2.55,6.32S448.75,717,448.75,712Z"/><path class="cls-1" d="M455.85,717.8h4V707.18h-3.44v-2.63a12.62,12.62,0,0,0,4.55-1.67h3.14V717.8h3.43v3.43H455.85Z"/><path class="cls-1" d="M470.16,712c0-6.24,2.62-9.44,6.56-9.44s6.57,3.22,6.57,9.44-2.62,9.61-6.57,9.61S470.16,718.22,470.16,712Zm9.11,0c0-5-1.11-6.15-2.55-6.15s-2.54,1.14-2.54,6.15,1.11,6.32,2.54,6.32S479.27,717,479.27,712Z"/><path class="cls-1" d="M486.36,717.8h4V707.18h-3.43v-2.63a12.76,12.76,0,0,0,4.55-1.67h3.13V717.8h3.44v3.43h-11.7Z"/><path class="cls-1" d="M500.67,712c0-6.24,2.63-9.44,6.57-9.44s6.57,3.22,6.57,9.44-2.63,9.61-6.57,9.61S500.67,718.22,500.67,712Zm9.12,0c0-5-1.12-6.15-2.55-6.15s-2.55,1.14-2.55,6.15,1.12,6.32,2.55,6.32S509.79,717,509.79,712Z"/><path class="cls-1" d="M515.93,712c0-6.24,2.62-9.44,6.57-9.44s6.56,3.22,6.56,9.44-2.62,9.61-6.56,9.61S515.93,718.22,515.93,712Zm9.11,0c0-5-1.11-6.15-2.54-6.15S520,707,520,712s1.12,6.32,2.55,6.32S525,717,525,712Z"/><path class="cls-1" d="M531.19,712c0-6.24,2.62-9.44,6.57-9.44s6.56,3.22,6.56,9.44-2.62,9.61-6.56,9.61S531.19,718.22,531.19,712Zm9.11,0c0-5-1.11-6.15-2.54-6.15s-2.55,1.14-2.55,6.15,1.12,6.32,2.55,6.32S540.3,717,540.3,712Z"/><path class="cls-1" d="M547.39,717.8h4V707.18H548v-2.63a12.62,12.62,0,0,0,4.55-1.67h3.13V717.8h3.44v3.43h-11.7Z"/><path class="cls-1" d="M561.71,712c0-6.24,2.62-9.44,6.56-9.44s6.57,3.22,6.57,9.44-2.62,9.61-6.57,9.61S561.71,718.22,561.71,712Zm9.11,0c0-5-1.12-6.15-2.55-6.15s-2.54,1.14-2.54,6.15,1.11,6.32,2.54,6.32S570.82,717,570.82,712Z"/><path class="cls-1" d="M577,712c0-6.24,2.62-9.44,6.57-9.44s6.57,3.22,6.57,9.44-2.63,9.61-6.57,9.61S577,718.22,577,712Zm9.12,0c0-5-1.12-6.15-2.55-6.15S581,707,581,712s1.12,6.32,2.55,6.32S586.08,717,586.08,712Z"/><path class="cls-1" d="M593.17,717.8h4V707.18h-3.44v-2.63a12.62,12.62,0,0,0,4.55-1.67h3.14V717.8h3.43v3.43H593.17Z"/><path class="cls-1" d="M608.42,717.8h4V707.18H609v-2.63a12.62,12.62,0,0,0,4.55-1.67h3.13V717.8h3.44v3.43h-11.7Z"/><path class="cls-1" d="M622.74,712c0-6.24,2.62-9.44,6.56-9.44s6.57,3.22,6.57,9.44-2.62,9.61-6.57,9.61S622.74,718.22,622.74,712Zm9.11,0c0-5-1.12-6.15-2.55-6.15s-2.54,1.14-2.54,6.15,1.11,6.32,2.54,6.32S631.85,717,631.85,712Z"/><path class="cls-1" d="M638.94,717.8h4V707.18h-3.44v-2.63a12.74,12.74,0,0,0,4.56-1.67h3.13V717.8h3.44v3.43h-11.7Z"/><path class="cls-1" d="M653.25,712c0-6.24,2.62-9.44,6.57-9.44s6.56,3.22,6.56,9.44-2.62,9.61-6.56,9.61S653.25,718.22,653.25,712Zm9.11,0c0-5-1.11-6.15-2.54-6.15s-2.55,1.14-2.55,6.15,1.12,6.32,2.55,6.32S662.36,717,662.36,712Z"/><path class="cls-1" d="M669.46,717.8h4V707.18H670v-2.63a12.62,12.62,0,0,0,4.55-1.67h3.14V717.8h3.43v3.43H669.46Z"/><path class="cls-1" d="M684.71,717.8h4V707.18h-3.43v-2.63a12.62,12.62,0,0,0,4.55-1.67H693V717.8h3.44v3.43h-11.7Z"/><path class="cls-1" d="M700,717.8h4V707.18h-3.43v-2.63a12.76,12.76,0,0,0,4.55-1.67h3.13V717.8h3.44v3.43H700Z"/><path class="cls-1" d="M715.23,717.8h4V707.18H715.8v-2.63a12.74,12.74,0,0,0,4.56-1.67h3.13V717.8h3.44v3.43h-11.7Z"/><path class="cls-1" d="M729.54,712c0-6.24,2.62-9.44,6.57-9.44s6.56,3.22,6.56,9.44-2.62,9.61-6.56,9.61S729.54,718.22,729.54,712Zm9.11,0c0-5-1.11-6.15-2.54-6.15s-2.55,1.14-2.55,6.15,1.12,6.32,2.55,6.32S738.65,717,738.65,712Z"/><path class="cls-1" d="M257.49,746.7h4V736.08h-3.44v-2.64a12.26,12.26,0,0,0,4.55-1.67h3.13V746.7h3.44v3.43h-11.7Z"/><path class="cls-1" d="M272.75,746.7h4V736.08h-3.43v-2.64a12.39,12.39,0,0,0,4.55-1.67H281V746.7h3.44v3.43h-11.7Z"/><path class="cls-1" d="M287.06,740.87c0-6.25,2.63-9.44,6.57-9.44s6.57,3.22,6.57,9.44-2.63,9.6-6.57,9.6S287.06,747.12,287.06,740.87Zm9.12,0c0-5-1.12-6.16-2.55-6.16s-2.55,1.15-2.55,6.16,1.12,6.32,2.55,6.32S296.18,745.88,296.18,740.87Z"/><path class="cls-1" d="M302.32,740.87c0-6.25,2.62-9.44,6.57-9.44s6.56,3.22,6.56,9.44-2.62,9.6-6.56,9.6S302.32,747.12,302.32,740.87Zm9.11,0c0-5-1.11-6.16-2.54-6.16s-2.55,1.15-2.55,6.16,1.12,6.32,2.55,6.32S311.43,745.88,311.43,740.87Z"/><path class="cls-1" d="M318.53,746.7h4V736.08H319.1v-2.64a12.26,12.26,0,0,0,4.55-1.67h3.14V746.7h3.43v3.43H318.53Z"/><path class="cls-1" d="M333.78,746.7h4V736.08h-3.43v-2.64a12.32,12.32,0,0,0,4.55-1.67H342V746.7h3.44v3.43h-11.7Z"/><path class="cls-1" d="M348.1,740.87c0-6.25,2.62-9.44,6.56-9.44s6.57,3.22,6.57,9.44-2.62,9.6-6.57,9.6S348.1,747.12,348.1,740.87Zm9.11,0c0-5-1.12-6.16-2.55-6.16s-2.54,1.15-2.54,6.16,1.11,6.32,2.54,6.32S357.21,745.88,357.21,740.87Z"/><path class="cls-1" d="M363.35,740.87c0-6.25,2.63-9.44,6.57-9.44s6.57,3.22,6.57,9.44-2.63,9.6-6.57,9.6S363.35,747.12,363.35,740.87Zm9.12,0c0-5-1.12-6.16-2.55-6.16s-2.55,1.15-2.55,6.16,1.12,6.32,2.55,6.32S372.47,745.88,372.47,740.87Z"/><path class="cls-1" d="M378.61,740.87c0-6.25,2.62-9.44,6.57-9.44s6.56,3.22,6.56,9.44-2.62,9.6-6.56,9.6S378.61,747.12,378.61,740.87Zm9.11,0c0-5-1.11-6.16-2.54-6.16s-2.55,1.15-2.55,6.16,1.12,6.32,2.55,6.32S387.72,745.88,387.72,740.87Z"/><path class="cls-1" d="M393.87,740.87c0-6.25,2.62-9.44,6.57-9.44s6.56,3.22,6.56,9.44-2.62,9.6-6.56,9.6S393.87,747.12,393.87,740.87Zm9.11,0c0-5-1.11-6.16-2.54-6.16s-2.55,1.15-2.55,6.16,1.11,6.32,2.55,6.32S403,745.88,403,740.87Z"/><path class="cls-1" d="M410.07,746.7h4V736.08h-3.43v-2.64a12.32,12.32,0,0,0,4.55-1.67h3.13V746.7h3.44v3.43h-11.7Z"/><path class="cls-1" d="M424.39,740.87c0-6.25,2.62-9.44,6.56-9.44s6.57,3.22,6.57,9.44-2.62,9.6-6.57,9.6S424.39,747.12,424.39,740.87Zm9.11,0c0-5-1.12-6.16-2.55-6.16s-2.54,1.15-2.54,6.16,1.11,6.32,2.54,6.32S433.5,745.88,433.5,740.87Z"/><path class="cls-1" d="M439.64,740.87c0-6.25,2.62-9.44,6.57-9.44s6.57,3.22,6.57,9.44-2.63,9.6-6.57,9.6S439.64,747.12,439.64,740.87Zm9.11,0c0-5-1.11-6.16-2.54-6.16s-2.55,1.15-2.55,6.16,1.12,6.32,2.55,6.32S448.75,745.88,448.75,740.87Z"/><path class="cls-1" d="M455.85,746.7h4V736.08h-3.44v-2.64a12.26,12.26,0,0,0,4.55-1.67h3.14V746.7h3.43v3.43H455.85Z"/><path class="cls-1" d="M471.1,746.7h4V736.08h-3.44v-2.64a12.26,12.26,0,0,0,4.55-1.67h3.13V746.7h3.44v3.43H471.1Z"/><path class="cls-1" d="M485.42,740.87c0-6.25,2.62-9.44,6.56-9.44s6.57,3.22,6.57,9.44-2.62,9.6-6.57,9.6S485.42,747.12,485.42,740.87Zm9.11,0c0-5-1.12-6.16-2.55-6.16s-2.54,1.15-2.54,6.16,1.11,6.32,2.54,6.32S494.53,745.88,494.53,740.87Z"/><path class="cls-1" d="M501.62,746.7h4V736.08h-3.44v-2.64a12.38,12.38,0,0,0,4.56-1.67h3.13V746.7h3.44v3.43h-11.7Z"/><path class="cls-1" d="M516.88,746.7h4V736.08h-3.44v-2.64a12.26,12.26,0,0,0,4.55-1.67h3.14V746.7h3.43v3.43H516.88Z"/><path class="cls-1" d="M532.13,746.7h4V736.08h-3.44v-2.64a12.26,12.26,0,0,0,4.55-1.67h3.14V746.7h3.43v3.43h-11.7Z"/><path class="cls-1" d="M546.45,740.87c0-6.25,2.62-9.44,6.56-9.44s6.57,3.22,6.57,9.44-2.62,9.6-6.57,9.6S546.45,747.12,546.45,740.87Zm9.11,0c0-5-1.12-6.16-2.55-6.16s-2.54,1.15-2.54,6.16,1.11,6.32,2.54,6.32S555.56,745.88,555.56,740.87Z"/><path class="cls-1" d="M561.71,740.87c0-6.25,2.62-9.44,6.56-9.44s6.57,3.22,6.57,9.44-2.62,9.6-6.57,9.6S561.71,747.12,561.71,740.87Zm9.11,0c0-5-1.12-6.16-2.55-6.16s-2.54,1.15-2.54,6.16,1.11,6.32,2.54,6.32S570.82,745.88,570.82,740.87Z"/><path class="cls-1" d="M577.91,746.7h4V736.08h-3.44v-2.64a12.38,12.38,0,0,0,4.56-1.67h3.13V746.7h3.44v3.43h-11.7Z"/><path class="cls-1" d="M592.22,740.87c0-6.25,2.62-9.44,6.57-9.44s6.56,3.22,6.56,9.44-2.62,9.6-6.56,9.6S592.22,747.12,592.22,740.87Zm9.11,0c0-5-1.11-6.16-2.54-6.16s-2.55,1.15-2.55,6.16,1.12,6.32,2.55,6.32S601.33,745.88,601.33,740.87Z"/><path class="cls-1" d="M607.48,740.87c0-6.25,2.62-9.44,6.56-9.44s6.57,3.22,6.57,9.44-2.62,9.6-6.57,9.6S607.48,747.12,607.48,740.87Zm9.11,0c0-5-1.11-6.16-2.55-6.16s-2.54,1.15-2.54,6.16,1.11,6.32,2.54,6.32S616.59,745.88,616.59,740.87Z"/><path class="cls-1" d="M622.74,740.87c0-6.25,2.62-9.44,6.56-9.44s6.57,3.22,6.57,9.44-2.62,9.6-6.57,9.6S622.74,747.12,622.74,740.87Zm9.11,0c0-5-1.12-6.16-2.55-6.16s-2.54,1.15-2.54,6.16,1.11,6.32,2.54,6.32S631.85,745.88,631.85,740.87Z"/><path class="cls-1" d="M638,740.87c0-6.25,2.62-9.44,6.56-9.44s6.57,3.22,6.57,9.44-2.63,9.6-6.57,9.6S638,747.12,638,740.87Zm9.11,0c0-5-1.12-6.16-2.55-6.16s-2.55,1.15-2.55,6.16,1.12,6.32,2.55,6.32S647.11,745.88,647.11,740.87Z"/><path class="cls-1" d="M654.2,746.7h4V736.08h-3.44v-2.64a12.38,12.38,0,0,0,4.56-1.67h3.13V746.7h3.43v3.43H654.2Z"/><path class="cls-1" d="M669.46,746.7h4V736.08H670v-2.64a12.26,12.26,0,0,0,4.55-1.67h3.14V746.7h3.43v3.43H669.46Z"/><path class="cls-1" d="M683.77,740.87c0-6.25,2.62-9.44,6.56-9.44s6.57,3.22,6.57,9.44-2.62,9.6-6.57,9.6S683.77,747.12,683.77,740.87Zm9.11,0c0-5-1.12-6.16-2.55-6.16s-2.54,1.15-2.54,6.16,1.11,6.32,2.54,6.32S692.88,745.88,692.88,740.87Z"/><path class="cls-1" d="M699,740.87c0-6.25,2.62-9.44,6.56-9.44s6.57,3.22,6.57,9.44-2.62,9.6-6.57,9.6S699,747.12,699,740.87Zm9.11,0c0-5-1.12-6.16-2.55-6.16s-2.54,1.15-2.54,6.16,1.11,6.32,2.54,6.32S708.14,745.88,708.14,740.87Z"/><path class="cls-1" d="M715.23,746.7h4V736.08H715.8v-2.64a12.38,12.38,0,0,0,4.56-1.67h3.13V746.7h3.44v3.43h-11.7Z"/><path class="cls-1" d="M730.49,746.7h4V736.08h-3.44v-2.64a12.26,12.26,0,0,0,4.55-1.67h3.14V746.7h3.43v3.43H730.49Z"/><path class="cls-1" d="M256.55,769.77c0-6.25,2.62-9.44,6.56-9.44s6.57,3.21,6.57,9.44-2.62,9.6-6.57,9.6S256.55,776,256.55,769.77Zm9.11,0c0-5-1.11-6.16-2.55-6.16s-2.54,1.15-2.54,6.16,1.11,6.32,2.54,6.32S265.66,774.78,265.66,769.77Z"/><path class="cls-1" d="M272.75,775.6h4V765h-3.43v-2.64a12.39,12.39,0,0,0,4.55-1.67H281V775.6h3.44V779h-11.7Z"/><path class="cls-1" d="M287.06,769.77c0-6.25,2.63-9.44,6.57-9.44s6.57,3.21,6.57,9.44-2.63,9.6-6.57,9.6S287.06,776,287.06,769.77Zm9.12,0c0-5-1.12-6.16-2.55-6.16s-2.55,1.15-2.55,6.16,1.12,6.32,2.55,6.32S296.18,774.78,296.18,769.77Z"/><path class="cls-1" d="M302.32,769.77c0-6.25,2.62-9.44,6.57-9.44s6.56,3.21,6.56,9.44-2.62,9.6-6.56,9.6S302.32,776,302.32,769.77Zm9.11,0c0-5-1.11-6.16-2.54-6.16s-2.55,1.15-2.55,6.16,1.12,6.32,2.55,6.32S311.43,774.78,311.43,769.77Z"/><path class="cls-1" d="M317.58,769.77c0-6.25,2.62-9.44,6.57-9.44s6.56,3.21,6.56,9.44-2.62,9.6-6.56,9.6S317.58,776,317.58,769.77Zm9.11,0c0-5-1.11-6.16-2.54-6.16s-2.55,1.15-2.55,6.16,1.12,6.32,2.55,6.32S326.69,774.78,326.69,769.77Z"/><path class="cls-1" d="M332.84,769.77c0-6.25,2.62-9.44,6.56-9.44s6.57,3.21,6.57,9.44-2.62,9.6-6.57,9.6S332.84,776,332.84,769.77Zm9.11,0c0-5-1.12-6.16-2.55-6.16s-2.54,1.15-2.54,6.16,1.11,6.32,2.54,6.32S342,774.78,342,769.77Z"/><path class="cls-1" d="M348.1,769.77c0-6.25,2.62-9.44,6.56-9.44s6.57,3.21,6.57,9.44-2.62,9.6-6.57,9.6S348.1,776,348.1,769.77Zm9.11,0c0-5-1.12-6.16-2.55-6.16s-2.54,1.15-2.54,6.16,1.11,6.32,2.54,6.32S357.21,774.78,357.21,769.77Z"/><path class="cls-1" d="M363.35,769.77c0-6.25,2.63-9.44,6.57-9.44s6.57,3.21,6.57,9.44-2.63,9.6-6.57,9.6S363.35,776,363.35,769.77Zm9.12,0c0-5-1.12-6.16-2.55-6.16s-2.55,1.15-2.55,6.16,1.12,6.32,2.55,6.32S372.47,774.78,372.47,769.77Z"/><path class="cls-1" d="M378.61,769.77c0-6.25,2.62-9.44,6.57-9.44s6.56,3.21,6.56,9.44-2.62,9.6-6.56,9.6S378.61,776,378.61,769.77Zm9.11,0c0-5-1.11-6.16-2.54-6.16s-2.55,1.15-2.55,6.16,1.12,6.32,2.55,6.32S387.72,774.78,387.72,769.77Z"/><path class="cls-1" d="M394.81,775.6h4V765h-3.44v-2.64a12.26,12.26,0,0,0,4.55-1.67h3.14V775.6h3.43V779h-11.7Z"/><path class="cls-1" d="M409.13,769.77c0-6.25,2.62-9.44,6.56-9.44s6.57,3.21,6.57,9.44-2.62,9.6-6.57,9.6S409.13,776,409.13,769.77Zm9.11,0c0-5-1.12-6.16-2.55-6.16s-2.54,1.15-2.54,6.16,1.11,6.32,2.54,6.32S418.24,774.78,418.24,769.77Z"/><path class="cls-1" d="M425.33,775.6h4V765H425.9v-2.64a12.38,12.38,0,0,0,4.56-1.67h3.13V775.6H437V779h-11.7Z"/><path class="cls-1" d="M439.64,769.77c0-6.25,2.62-9.44,6.57-9.44s6.57,3.21,6.57,9.44-2.63,9.6-6.57,9.6S439.64,776,439.64,769.77Zm9.11,0c0-5-1.11-6.16-2.54-6.16s-2.55,1.15-2.55,6.16,1.12,6.32,2.55,6.32S448.75,774.78,448.75,769.77Z"/><path class="cls-1" d="M454.9,769.77c0-6.25,2.62-9.44,6.57-9.44s6.56,3.21,6.56,9.44-2.62,9.6-6.56,9.6S454.9,776,454.9,769.77Zm9.11,0c0-5-1.11-6.16-2.54-6.16s-2.55,1.15-2.55,6.16,1.12,6.32,2.55,6.32S464,774.78,464,769.77Z"/><path class="cls-1" d="M471.1,775.6h4V765h-3.44v-2.64a12.26,12.26,0,0,0,4.55-1.67h3.13V775.6h3.44V779H471.1Z"/><path class="cls-1" d="M485.42,769.77c0-6.25,2.62-9.44,6.56-9.44s6.57,3.21,6.57,9.44-2.62,9.6-6.57,9.6S485.42,776,485.42,769.77Zm9.11,0c0-5-1.12-6.16-2.55-6.16s-2.54,1.15-2.54,6.16,1.11,6.32,2.54,6.32S494.53,774.78,494.53,769.77Z"/><path class="cls-1" d="M501.62,775.6h4V765h-3.44v-2.64a12.38,12.38,0,0,0,4.56-1.67h3.13V775.6h3.44V779h-11.7Z"/><path class="cls-1" d="M515.93,769.77c0-6.25,2.62-9.44,6.57-9.44s6.56,3.21,6.56,9.44-2.62,9.6-6.56,9.6S515.93,776,515.93,769.77Zm9.11,0c0-5-1.11-6.16-2.54-6.16s-2.55,1.15-2.55,6.16,1.12,6.32,2.55,6.32S525,774.78,525,769.77Z"/><path class="cls-1" d="M531.19,769.77c0-6.25,2.62-9.44,6.57-9.44s6.56,3.21,6.56,9.44-2.62,9.6-6.56,9.6S531.19,776,531.19,769.77Zm9.11,0c0-5-1.11-6.16-2.54-6.16s-2.55,1.15-2.55,6.16,1.12,6.32,2.55,6.32S540.3,774.78,540.3,769.77Z"/><path class="cls-1" d="M546.45,769.77c0-6.25,2.62-9.44,6.56-9.44s6.57,3.21,6.57,9.44-2.62,9.6-6.57,9.6S546.45,776,546.45,769.77Zm9.11,0c0-5-1.12-6.16-2.55-6.16s-2.54,1.15-2.54,6.16,1.11,6.32,2.54,6.32S555.56,774.78,555.56,769.77Z"/><path class="cls-1" d="M561.71,769.77c0-6.25,2.62-9.44,6.56-9.44s6.57,3.21,6.57,9.44-2.62,9.6-6.57,9.6S561.71,776,561.71,769.77Zm9.11,0c0-5-1.12-6.16-2.55-6.16s-2.54,1.15-2.54,6.16,1.11,6.32,2.54,6.32S570.82,774.78,570.82,769.77Z"/><path class="cls-1" d="M577,769.77c0-6.25,2.62-9.44,6.57-9.44s6.57,3.21,6.57,9.44-2.63,9.6-6.57,9.6S577,776,577,769.77Zm9.12,0c0-5-1.12-6.16-2.55-6.16s-2.55,1.15-2.55,6.16,1.12,6.32,2.55,6.32S586.08,774.78,586.08,769.77Z"/><path class="cls-1" d="M593.17,775.6h4V765h-3.44v-2.64a12.26,12.26,0,0,0,4.55-1.67h3.14V775.6h3.43V779H593.17Z"/><path class="cls-1" d="M608.42,775.6h4V765H609v-2.64a12.26,12.26,0,0,0,4.55-1.67h3.13V775.6h3.44V779h-11.7Z"/><path class="cls-1" d="M622.74,769.77c0-6.25,2.62-9.44,6.56-9.44s6.57,3.21,6.57,9.44-2.62,9.6-6.57,9.6S622.74,776,622.74,769.77Zm9.11,0c0-5-1.12-6.16-2.55-6.16s-2.54,1.15-2.54,6.16,1.11,6.32,2.54,6.32S631.85,774.78,631.85,769.77Z"/><path class="cls-1" d="M638,769.77c0-6.25,2.62-9.44,6.56-9.44s6.57,3.21,6.57,9.44-2.63,9.6-6.57,9.6S638,776,638,769.77Zm9.11,0c0-5-1.12-6.16-2.55-6.16s-2.55,1.15-2.55,6.16,1.12,6.32,2.55,6.32S647.11,774.78,647.11,769.77Z"/><path class="cls-1" d="M653.25,769.77c0-6.25,2.62-9.44,6.57-9.44s6.56,3.21,6.56,9.44-2.62,9.6-6.56,9.6S653.25,776,653.25,769.77Zm9.11,0c0-5-1.11-6.16-2.54-6.16s-2.55,1.15-2.55,6.16,1.12,6.32,2.55,6.32S662.36,774.78,662.36,769.77Z"/><path class="cls-1" d="M669.46,775.6h4V765H670v-2.64a12.26,12.26,0,0,0,4.55-1.67h3.14V775.6h3.43V779H669.46Z"/><path class="cls-1" d="M683.77,769.77c0-6.25,2.62-9.44,6.56-9.44s6.57,3.21,6.57,9.44-2.62,9.6-6.57,9.6S683.77,776,683.77,769.77Zm9.11,0c0-5-1.12-6.16-2.55-6.16s-2.54,1.15-2.54,6.16,1.11,6.32,2.54,6.32S692.88,774.78,692.88,769.77Z"/><path class="cls-1" d="M699,769.77c0-6.25,2.62-9.44,6.56-9.44s6.57,3.21,6.57,9.44-2.62,9.6-6.57,9.6S699,776,699,769.77Zm9.11,0c0-5-1.12-6.16-2.55-6.16s-2.54,1.15-2.54,6.16,1.11,6.32,2.54,6.32S708.14,774.78,708.14,769.77Z"/><path class="cls-1" d="M714.28,769.77c0-6.25,2.63-9.44,6.57-9.44s6.57,3.21,6.57,9.44-2.63,9.6-6.57,9.6S714.28,776,714.28,769.77Zm9.12,0c0-5-1.12-6.16-2.55-6.16s-2.55,1.15-2.55,6.16,1.12,6.32,2.55,6.32S723.4,774.78,723.4,769.77Z"/><path class="cls-1" d="M730.49,775.6h4V765h-3.44v-2.64a12.26,12.26,0,0,0,4.55-1.67h3.14V775.6h3.43V779H730.49Z"/><path class="cls-1" d="M256.55,798.67c0-6.25,2.62-9.45,6.56-9.45s6.57,3.22,6.57,9.45-2.62,9.6-6.57,9.6S256.55,804.91,256.55,798.67Zm9.11,0c0-5-1.11-6.16-2.55-6.16s-2.54,1.15-2.54,6.16,1.11,6.31,2.54,6.31S265.66,803.67,265.66,798.67Z"/><path class="cls-1" d="M271.81,798.67c0-6.25,2.62-9.45,6.56-9.45s6.57,3.22,6.57,9.45-2.62,9.6-6.57,9.6S271.81,804.91,271.81,798.67Zm9.11,0c0-5-1.12-6.16-2.55-6.16s-2.54,1.15-2.54,6.16,1.11,6.31,2.54,6.31S280.92,803.67,280.92,798.67Z"/><path class="cls-1" d="M287.06,798.67c0-6.25,2.63-9.45,6.57-9.45s6.57,3.22,6.57,9.45-2.63,9.6-6.57,9.6S287.06,804.91,287.06,798.67Zm9.12,0c0-5-1.12-6.16-2.55-6.16s-2.55,1.15-2.55,6.16,1.12,6.31,2.55,6.31S296.18,803.67,296.18,798.67Z"/><path class="cls-1" d="M303.27,804.49h4V793.88h-3.44v-2.64a12.38,12.38,0,0,0,4.56-1.67h3.13v14.92H315v3.43H303.27Z"/><path class="cls-1" d="M318.53,804.49h4V793.88H319.1v-2.64a12.26,12.26,0,0,0,4.55-1.67h3.14v14.92h3.43v3.43H318.53Z"/><path class="cls-1" d="M333.78,804.49h4V793.88h-3.43v-2.64a12.32,12.32,0,0,0,4.55-1.67H342v14.92h3.44v3.43h-11.7Z"/><path class="cls-1" d="M349,804.49h4V793.88h-3.43v-2.64a12.39,12.39,0,0,0,4.55-1.67h3.13v14.92h3.44v3.43H349Z"/><path class="cls-1" d="M363.35,798.67c0-6.25,2.63-9.45,6.57-9.45s6.57,3.22,6.57,9.45-2.63,9.6-6.57,9.6S363.35,804.91,363.35,798.67Zm9.12,0c0-5-1.12-6.16-2.55-6.16s-2.55,1.15-2.55,6.16,1.12,6.31,2.55,6.31S372.47,803.67,372.47,798.67Z"/><path class="cls-1" d="M378.61,798.67c0-6.25,2.62-9.45,6.57-9.45s6.56,3.22,6.56,9.45-2.62,9.6-6.56,9.6S378.61,804.91,378.61,798.67Zm9.11,0c0-5-1.11-6.16-2.54-6.16s-2.55,1.15-2.55,6.16,1.12,6.31,2.55,6.31S387.72,803.67,387.72,798.67Z"/><path class="cls-1" d="M393.87,798.67c0-6.25,2.62-9.45,6.57-9.45s6.56,3.22,6.56,9.45-2.62,9.6-6.56,9.6S393.87,804.91,393.87,798.67Zm9.11,0c0-5-1.11-6.16-2.54-6.16s-2.55,1.15-2.55,6.16S399,805,400.44,805,403,803.67,403,798.67Z"/><path class="cls-1" d="M409.13,798.67c0-6.25,2.62-9.45,6.56-9.45s6.57,3.22,6.57,9.45-2.62,9.6-6.57,9.6S409.13,804.91,409.13,798.67Zm9.11,0c0-5-1.12-6.16-2.55-6.16s-2.54,1.15-2.54,6.16,1.11,6.31,2.54,6.31S418.24,803.67,418.24,798.67Z"/><path class="cls-1" d="M425.33,804.49h4V793.88H425.9v-2.64a12.38,12.38,0,0,0,4.56-1.67h3.13v14.92H437v3.43h-11.7Z"/><path class="cls-1" d="M440.59,804.49h4V793.88h-3.44v-2.64a12.38,12.38,0,0,0,4.56-1.67h3.13v14.92h3.44v3.43h-11.7Z"/><path class="cls-1" d="M454.9,798.67c0-6.25,2.62-9.45,6.57-9.45s6.56,3.22,6.56,9.45-2.62,9.6-6.56,9.6S454.9,804.91,454.9,798.67Zm9.11,0c0-5-1.11-6.16-2.54-6.16s-2.55,1.15-2.55,6.16S460,805,461.47,805,464,803.67,464,798.67Z"/><path class="cls-1" d="M471.1,804.49h4V793.88h-3.44v-2.64a12.26,12.26,0,0,0,4.55-1.67h3.13v14.92h3.44v3.43H471.1Z"/><path class="cls-1" d="M485.42,798.67c0-6.25,2.62-9.45,6.56-9.45s6.57,3.22,6.57,9.45-2.62,9.6-6.57,9.6S485.42,804.91,485.42,798.67Zm9.11,0c0-5-1.12-6.16-2.55-6.16s-2.54,1.15-2.54,6.16S490.55,805,492,805,494.53,803.67,494.53,798.67Z"/><path class="cls-1" d="M500.67,798.67c0-6.25,2.63-9.45,6.57-9.45s6.57,3.22,6.57,9.45-2.63,9.6-6.57,9.6S500.67,804.91,500.67,798.67Zm9.12,0c0-5-1.12-6.16-2.55-6.16s-2.55,1.15-2.55,6.16,1.12,6.31,2.55,6.31S509.79,803.67,509.79,798.67Z"/><path class="cls-1" d="M515.93,798.67c0-6.25,2.62-9.45,6.57-9.45s6.56,3.22,6.56,9.45-2.62,9.6-6.56,9.6S515.93,804.91,515.93,798.67Zm9.11,0c0-5-1.11-6.16-2.54-6.16s-2.55,1.15-2.55,6.16,1.12,6.31,2.55,6.31S525,803.67,525,798.67Z"/><path class="cls-1" d="M531.19,798.67c0-6.25,2.62-9.45,6.57-9.45s6.56,3.22,6.56,9.45-2.62,9.6-6.56,9.6S531.19,804.91,531.19,798.67Zm9.11,0c0-5-1.11-6.16-2.54-6.16s-2.55,1.15-2.55,6.16,1.12,6.31,2.55,6.31S540.3,803.67,540.3,798.67Z"/><path class="cls-1" d="M546.45,798.67c0-6.25,2.62-9.45,6.56-9.45s6.57,3.22,6.57,9.45-2.62,9.6-6.57,9.6S546.45,804.91,546.45,798.67Zm9.11,0c0-5-1.12-6.16-2.55-6.16s-2.54,1.15-2.54,6.16S551.58,805,553,805,555.56,803.67,555.56,798.67Z"/><path class="cls-1" d="M561.71,798.67c0-6.25,2.62-9.45,6.56-9.45s6.57,3.22,6.57,9.45-2.62,9.6-6.57,9.6S561.71,804.91,561.71,798.67Zm9.11,0c0-5-1.12-6.16-2.55-6.16s-2.54,1.15-2.54,6.16,1.11,6.31,2.54,6.31S570.82,803.67,570.82,798.67Z"/><path class="cls-1" d="M577,798.67c0-6.25,2.62-9.45,6.57-9.45s6.57,3.22,6.57,9.45-2.63,9.6-6.57,9.6S577,804.91,577,798.67Zm9.12,0c0-5-1.12-6.16-2.55-6.16s-2.55,1.15-2.55,6.16,1.12,6.31,2.55,6.31S586.08,803.67,586.08,798.67Z"/><path class="cls-1" d="M592.22,798.67c0-6.25,2.62-9.45,6.57-9.45s6.56,3.22,6.56,9.45-2.62,9.6-6.56,9.6S592.22,804.91,592.22,798.67Zm9.11,0c0-5-1.11-6.16-2.54-6.16s-2.55,1.15-2.55,6.16,1.12,6.31,2.55,6.31S601.33,803.67,601.33,798.67Z"/><path class="cls-1" d="M608.42,804.49h4V793.88H609v-2.64a12.26,12.26,0,0,0,4.55-1.67h3.13v14.92h3.44v3.43h-11.7Z"/><path class="cls-1" d="M623.68,804.49h4V793.88h-3.43v-2.64a12.32,12.32,0,0,0,4.55-1.67h3.13v14.92h3.44v3.43h-11.7Z"/><path class="cls-1" d="M638,798.67c0-6.25,2.62-9.45,6.56-9.45s6.57,3.22,6.57,9.45-2.63,9.6-6.57,9.6S638,804.91,638,798.67Zm9.11,0c0-5-1.12-6.16-2.55-6.16s-2.55,1.15-2.55,6.16,1.12,6.31,2.55,6.31S647.11,803.67,647.11,798.67Z"/><path class="cls-1" d="M654.2,804.49h4V793.88h-3.44v-2.64a12.38,12.38,0,0,0,4.56-1.67h3.13v14.92h3.43v3.43H654.2Z"/><path class="cls-1" d="M668.51,798.67c0-6.25,2.62-9.45,6.57-9.45s6.56,3.22,6.56,9.45-2.62,9.6-6.56,9.6S668.51,804.91,668.51,798.67Zm9.11,0c0-5-1.11-6.16-2.54-6.16s-2.55,1.15-2.55,6.16,1.12,6.31,2.55,6.31S677.62,803.67,677.62,798.67Z"/><path class="cls-1" d="M683.77,798.67c0-6.25,2.62-9.45,6.56-9.45s6.57,3.22,6.57,9.45-2.62,9.6-6.57,9.6S683.77,804.91,683.77,798.67Zm9.11,0c0-5-1.12-6.16-2.55-6.16s-2.54,1.15-2.54,6.16,1.11,6.31,2.54,6.31S692.88,803.67,692.88,798.67Z"/><path class="cls-1" d="M699,798.67c0-6.25,2.62-9.45,6.56-9.45s6.57,3.22,6.57,9.45-2.62,9.6-6.57,9.6S699,804.91,699,798.67Zm9.11,0c0-5-1.12-6.16-2.55-6.16s-2.54,1.15-2.54,6.16,1.11,6.31,2.54,6.31S708.14,803.67,708.14,798.67Z"/><path class="cls-1" d="M715.23,804.49h4V793.88H715.8v-2.64a12.38,12.38,0,0,0,4.56-1.67h3.13v14.92h3.44v3.43h-11.7Z"/><path class="cls-1" d="M730.49,804.49h4V793.88h-3.44v-2.64a12.26,12.26,0,0,0,4.55-1.67h3.14v14.92h3.43v3.43H730.49Z"/><path class="cls-1" d="M257.49,833.39h4V822.77h-3.44v-2.63a12.62,12.62,0,0,0,4.55-1.67h3.13v14.92h3.44v3.43h-11.7Z"/><path class="cls-1" d="M271.81,827.56c0-6.24,2.62-9.44,6.56-9.44s6.57,3.22,6.57,9.44-2.62,9.61-6.57,9.61S271.81,833.81,271.81,827.56Zm9.11,0c0-5-1.12-6.15-2.55-6.15s-2.54,1.14-2.54,6.15,1.11,6.32,2.54,6.32S280.92,832.57,280.92,827.56Z"/><path class="cls-1" d="M288,833.39h4V822.77h-3.44v-2.63a12.74,12.74,0,0,0,4.56-1.67h3.13v14.92h3.44v3.43H288Z"/><path class="cls-1" d="M303.27,833.39h4V822.77h-3.44v-2.63a12.74,12.74,0,0,0,4.56-1.67h3.13v14.92H315v3.43H303.27Z"/><path class="cls-1" d="M318.53,833.39h4V822.77H319.1v-2.63a12.62,12.62,0,0,0,4.55-1.67h3.14v14.92h3.43v3.43H318.53Z"/><path class="cls-1" d="M332.84,827.56c0-6.24,2.62-9.44,6.56-9.44s6.57,3.22,6.57,9.44-2.62,9.61-6.57,9.61S332.84,833.81,332.84,827.56Zm9.11,0c0-5-1.12-6.15-2.55-6.15s-2.54,1.14-2.54,6.15,1.11,6.32,2.54,6.32S342,832.57,342,827.56Z"/><path class="cls-1" d="M349,833.39h4V822.77h-3.43v-2.63a12.76,12.76,0,0,0,4.55-1.67h3.13v14.92h3.44v3.43H349Z"/><path class="cls-1" d="M364.3,833.39h4V822.77h-3.44v-2.63a12.74,12.74,0,0,0,4.56-1.67h3.13v14.92H376v3.43H364.3Z"/><path class="cls-1" d="M378.61,827.56c0-6.24,2.62-9.44,6.57-9.44s6.56,3.22,6.56,9.44-2.62,9.61-6.56,9.61S378.61,833.81,378.61,827.56Zm9.11,0c0-5-1.11-6.15-2.54-6.15s-2.55,1.14-2.55,6.15,1.12,6.32,2.55,6.32S387.72,832.57,387.72,827.56Z"/><path class="cls-1" d="M394.81,833.39h4V822.77h-3.44v-2.63a12.62,12.62,0,0,0,4.55-1.67h3.14v14.92h3.43v3.43h-11.7Z"/><path class="cls-1" d="M410.07,833.39h4V822.77h-3.43v-2.63a12.69,12.69,0,0,0,4.55-1.67h3.13v14.92h3.44v3.43h-11.7Z"/><path class="cls-1" d="M424.39,827.56c0-6.24,2.62-9.44,6.56-9.44s6.57,3.22,6.57,9.44-2.62,9.61-6.57,9.61S424.39,833.81,424.39,827.56Zm9.11,0c0-5-1.12-6.15-2.55-6.15s-2.54,1.14-2.54,6.15,1.11,6.32,2.54,6.32S433.5,832.57,433.5,827.56Z"/><path class="cls-1" d="M439.64,827.56c0-6.24,2.62-9.44,6.57-9.44s6.57,3.22,6.57,9.44-2.63,9.61-6.57,9.61S439.64,833.81,439.64,827.56Zm9.11,0c0-5-1.11-6.15-2.54-6.15s-2.55,1.14-2.55,6.15,1.12,6.32,2.55,6.32S448.75,832.57,448.75,827.56Z"/><path class="cls-1" d="M454.9,827.56c0-6.24,2.62-9.44,6.57-9.44s6.56,3.22,6.56,9.44-2.62,9.61-6.56,9.61S454.9,833.81,454.9,827.56Zm9.11,0c0-5-1.11-6.15-2.54-6.15s-2.55,1.14-2.55,6.15,1.12,6.32,2.55,6.32S464,832.57,464,827.56Z"/><path class="cls-1" d="M471.1,833.39h4V822.77h-3.44v-2.63a12.62,12.62,0,0,0,4.55-1.67h3.13v14.92h3.44v3.43H471.1Z"/><path class="cls-1" d="M485.42,827.56c0-6.24,2.62-9.44,6.56-9.44s6.57,3.22,6.57,9.44-2.62,9.61-6.57,9.61S485.42,833.81,485.42,827.56Zm9.11,0c0-5-1.12-6.15-2.55-6.15s-2.54,1.14-2.54,6.15,1.11,6.32,2.54,6.32S494.53,832.57,494.53,827.56Z"/><path class="cls-1" d="M501.62,833.39h4V822.77h-3.44v-2.63a12.74,12.74,0,0,0,4.56-1.67h3.13v14.92h3.44v3.43h-11.7Z"/><path class="cls-1" d="M516.88,833.39h4V822.77h-3.44v-2.63a12.62,12.62,0,0,0,4.55-1.67h3.14v14.92h3.43v3.43H516.88Z"/><path class="cls-1" d="M531.19,827.56c0-6.24,2.62-9.44,6.57-9.44s6.56,3.22,6.56,9.44-2.62,9.61-6.56,9.61S531.19,833.81,531.19,827.56Zm9.11,0c0-5-1.11-6.15-2.54-6.15s-2.55,1.14-2.55,6.15,1.12,6.32,2.55,6.32S540.3,832.57,540.3,827.56Z"/><path class="cls-1" d="M546.45,827.56c0-6.24,2.62-9.44,6.56-9.44s6.57,3.22,6.57,9.44-2.62,9.61-6.57,9.61S546.45,833.81,546.45,827.56Zm9.11,0c0-5-1.12-6.15-2.55-6.15s-2.54,1.14-2.54,6.15,1.11,6.32,2.54,6.32S555.56,832.57,555.56,827.56Z"/><path class="cls-1" d="M562.65,833.39h4V822.77h-3.43v-2.63a12.76,12.76,0,0,0,4.55-1.67h3.13v14.92h3.44v3.43h-11.7Z"/><path class="cls-1" d="M577.91,833.39h4V822.77h-3.44v-2.63a12.74,12.74,0,0,0,4.56-1.67h3.13v14.92h3.44v3.43h-11.7Z"/><path class="cls-1" d="M593.17,833.39h4V822.77h-3.44v-2.63a12.62,12.62,0,0,0,4.55-1.67h3.14v14.92h3.43v3.43H593.17Z"/><path class="cls-1" d="M607.48,827.56c0-6.24,2.62-9.44,6.56-9.44s6.57,3.22,6.57,9.44-2.62,9.61-6.57,9.61S607.48,833.81,607.48,827.56Zm9.11,0c0-5-1.11-6.15-2.55-6.15s-2.54,1.14-2.54,6.15,1.11,6.32,2.54,6.32S616.59,832.57,616.59,827.56Z"/><path class="cls-1" d="M623.68,833.39h4V822.77h-3.43v-2.63a12.69,12.69,0,0,0,4.55-1.67h3.13v14.92h3.44v3.43h-11.7Z"/><path class="cls-1" d="M638.94,833.39h4V822.77h-3.44v-2.63a12.74,12.74,0,0,0,4.56-1.67h3.13v14.92h3.44v3.43h-11.7Z"/><path class="cls-1" d="M653.25,827.56c0-6.24,2.62-9.44,6.57-9.44s6.56,3.22,6.56,9.44-2.62,9.61-6.56,9.61S653.25,833.81,653.25,827.56Zm9.11,0c0-5-1.11-6.15-2.54-6.15s-2.55,1.14-2.55,6.15,1.12,6.32,2.55,6.32S662.36,832.57,662.36,827.56Z"/><path class="cls-1" d="M668.51,827.56c0-6.24,2.62-9.44,6.57-9.44s6.56,3.22,6.56,9.44-2.62,9.61-6.56,9.61S668.51,833.81,668.51,827.56Zm9.11,0c0-5-1.11-6.15-2.54-6.15s-2.55,1.14-2.55,6.15,1.12,6.32,2.55,6.32S677.62,832.57,677.62,827.56Z"/><path class="cls-1" d="M684.71,833.39h4V822.77h-3.43v-2.63a12.62,12.62,0,0,0,4.55-1.67H693v14.92h3.44v3.43h-11.7Z"/><path class="cls-1" d="M699,827.56c0-6.24,2.62-9.44,6.56-9.44s6.57,3.22,6.57,9.44-2.62,9.61-6.57,9.61S699,833.81,699,827.56Zm9.11,0c0-5-1.12-6.15-2.55-6.15s-2.54,1.14-2.54,6.15,1.11,6.32,2.54,6.32S708.14,832.57,708.14,827.56Z"/><path class="cls-1" d="M715.23,833.39h4V822.77H715.8v-2.63a12.74,12.74,0,0,0,4.56-1.67h3.13v14.92h3.44v3.43h-11.7Z"/><path class="cls-1" d="M729.54,827.56c0-6.24,2.62-9.44,6.57-9.44s6.56,3.22,6.56,9.44-2.62,9.61-6.56,9.61S729.54,833.81,729.54,827.56Zm9.11,0c0-5-1.11-6.15-2.54-6.15s-2.55,1.14-2.55,6.15,1.12,6.32,2.55,6.32S738.65,832.57,738.65,827.56Z"/><path class="cls-1" d="M257.49,862.29h4V851.67h-3.44V849a12.26,12.26,0,0,0,4.55-1.67h3.13v14.93h3.44v3.43h-11.7Z"/><path class="cls-1" d="M272.75,862.29h4V851.67h-3.43V849a12.39,12.39,0,0,0,4.55-1.67H281v14.93h3.44v3.43h-11.7Z"/><path class="cls-1" d="M287.06,856.46c0-6.25,2.63-9.44,6.57-9.44s6.57,3.22,6.57,9.44-2.63,9.6-6.57,9.6S287.06,862.71,287.06,856.46Zm9.12,0c0-5-1.12-6.16-2.55-6.16s-2.55,1.15-2.55,6.16,1.12,6.32,2.55,6.32S296.18,861.47,296.18,856.46Z"/><path class="cls-1" d="M302.32,856.46c0-6.25,2.62-9.44,6.57-9.44s6.56,3.22,6.56,9.44-2.62,9.6-6.56,9.6S302.32,862.71,302.32,856.46Zm9.11,0c0-5-1.11-6.16-2.54-6.16s-2.55,1.15-2.55,6.16,1.12,6.32,2.55,6.32S311.43,861.47,311.43,856.46Z"/><path class="cls-1" d="M317.58,856.46c0-6.25,2.62-9.44,6.57-9.44s6.56,3.22,6.56,9.44-2.62,9.6-6.56,9.6S317.58,862.71,317.58,856.46Zm9.11,0c0-5-1.11-6.16-2.54-6.16s-2.55,1.15-2.55,6.16,1.12,6.32,2.55,6.32S326.69,861.47,326.69,856.46Z"/><path class="cls-1" d="M332.84,856.46c0-6.25,2.62-9.44,6.56-9.44s6.57,3.22,6.57,9.44-2.62,9.6-6.57,9.6S332.84,862.71,332.84,856.46Zm9.11,0c0-5-1.12-6.16-2.55-6.16s-2.54,1.15-2.54,6.16,1.11,6.32,2.54,6.32S342,861.47,342,856.46Z"/><path class="cls-1" d="M348.1,856.46c0-6.25,2.62-9.44,6.56-9.44s6.57,3.22,6.57,9.44-2.62,9.6-6.57,9.6S348.1,862.71,348.1,856.46Zm9.11,0c0-5-1.12-6.16-2.55-6.16s-2.54,1.15-2.54,6.16,1.11,6.32,2.54,6.32S357.21,861.47,357.21,856.46Z"/><path class="cls-1" d="M363.35,856.46c0-6.25,2.63-9.44,6.57-9.44s6.57,3.22,6.57,9.44-2.63,9.6-6.57,9.6S363.35,862.71,363.35,856.46Zm9.12,0c0-5-1.12-6.16-2.55-6.16s-2.55,1.15-2.55,6.16,1.12,6.32,2.55,6.32S372.47,861.47,372.47,856.46Z"/><path class="cls-1" d="M379.56,862.29h4V851.67h-3.44V849a12.26,12.26,0,0,0,4.55-1.67h3.14v14.93h3.43v3.43H379.56Z"/><path class="cls-1" d="M393.87,856.46c0-6.25,2.62-9.44,6.57-9.44s6.56,3.22,6.56,9.44-2.62,9.6-6.56,9.6S393.87,862.71,393.87,856.46Zm9.11,0c0-5-1.11-6.16-2.54-6.16s-2.55,1.15-2.55,6.16,1.11,6.32,2.55,6.32S403,861.47,403,856.46Z"/><path class="cls-1" d="M409.13,856.46c0-6.25,2.62-9.44,6.56-9.44s6.57,3.22,6.57,9.44-2.62,9.6-6.57,9.6S409.13,862.71,409.13,856.46Zm9.11,0c0-5-1.12-6.16-2.55-6.16s-2.54,1.15-2.54,6.16,1.11,6.32,2.54,6.32S418.24,861.47,418.24,856.46Z"/><path class="cls-1" d="M424.39,856.46c0-6.25,2.62-9.44,6.56-9.44s6.57,3.22,6.57,9.44-2.62,9.6-6.57,9.6S424.39,862.71,424.39,856.46Zm9.11,0c0-5-1.12-6.16-2.55-6.16s-2.54,1.15-2.54,6.16,1.11,6.32,2.54,6.32S433.5,861.47,433.5,856.46Z"/><path class="cls-1" d="M440.59,862.29h4V851.67h-3.44V849a12.38,12.38,0,0,0,4.56-1.67h3.13v14.93h3.44v3.43h-11.7Z"/><path class="cls-1" d="M454.9,856.46c0-6.25,2.62-9.44,6.57-9.44s6.56,3.22,6.56,9.44-2.62,9.6-6.56,9.6S454.9,862.71,454.9,856.46Zm9.11,0c0-5-1.11-6.16-2.54-6.16s-2.55,1.15-2.55,6.16,1.12,6.32,2.55,6.32S464,861.47,464,856.46Z"/><path class="cls-1" d="M470.16,856.46c0-6.25,2.62-9.44,6.56-9.44s6.57,3.22,6.57,9.44-2.62,9.6-6.57,9.6S470.16,862.71,470.16,856.46Zm9.11,0c0-5-1.11-6.16-2.55-6.16s-2.54,1.15-2.54,6.16,1.11,6.32,2.54,6.32S479.27,861.47,479.27,856.46Z"/><path class="cls-1" d="M485.42,856.46c0-6.25,2.62-9.44,6.56-9.44s6.57,3.22,6.57,9.44-2.62,9.6-6.57,9.6S485.42,862.71,485.42,856.46Zm9.11,0c0-5-1.12-6.16-2.55-6.16s-2.54,1.15-2.54,6.16,1.11,6.32,2.54,6.32S494.53,861.47,494.53,856.46Z"/><path class="cls-1" d="M500.67,856.46c0-6.25,2.63-9.44,6.57-9.44s6.57,3.22,6.57,9.44-2.63,9.6-6.57,9.6S500.67,862.71,500.67,856.46Zm9.12,0c0-5-1.12-6.16-2.55-6.16s-2.55,1.15-2.55,6.16,1.12,6.32,2.55,6.32S509.79,861.47,509.79,856.46Z"/><path class="cls-1" d="M516.88,862.29h4V851.67h-3.44V849a12.26,12.26,0,0,0,4.55-1.67h3.14v14.93h3.43v3.43H516.88Z"/><path class="cls-1" d="M531.19,856.46c0-6.25,2.62-9.44,6.57-9.44s6.56,3.22,6.56,9.44-2.62,9.6-6.56,9.6S531.19,862.71,531.19,856.46Zm9.11,0c0-5-1.11-6.16-2.54-6.16s-2.55,1.15-2.55,6.16,1.12,6.32,2.55,6.32S540.3,861.47,540.3,856.46Z"/><path class="cls-1" d="M546.45,856.46c0-6.25,2.62-9.44,6.56-9.44s6.57,3.22,6.57,9.44-2.62,9.6-6.57,9.6S546.45,862.71,546.45,856.46Zm9.11,0c0-5-1.12-6.16-2.55-6.16s-2.54,1.15-2.54,6.16,1.11,6.32,2.54,6.32S555.56,861.47,555.56,856.46Z"/><path class="cls-1" d="M562.65,862.29h4V851.67h-3.43V849a12.39,12.39,0,0,0,4.55-1.67h3.13v14.93h3.44v3.43h-11.7Z"/><path class="cls-1" d="M577.91,862.29h4V851.67h-3.44V849a12.38,12.38,0,0,0,4.56-1.67h3.13v14.93h3.44v3.43h-11.7Z"/><path class="cls-1" d="M592.22,856.46c0-6.25,2.62-9.44,6.57-9.44s6.56,3.22,6.56,9.44-2.62,9.6-6.56,9.6S592.22,862.71,592.22,856.46Zm9.11,0c0-5-1.11-6.16-2.54-6.16s-2.55,1.15-2.55,6.16,1.12,6.32,2.55,6.32S601.33,861.47,601.33,856.46Z"/><path class="cls-1" d="M608.42,862.29h4V851.67H609V849a12.26,12.26,0,0,0,4.55-1.67h3.13v14.93h3.44v3.43h-11.7Z"/><path class="cls-1" d="M623.68,862.29h4V851.67h-3.43V849a12.32,12.32,0,0,0,4.55-1.67h3.13v14.93h3.44v3.43h-11.7Z"/><path class="cls-1" d="M638,856.46c0-6.25,2.62-9.44,6.56-9.44s6.57,3.22,6.57,9.44-2.63,9.6-6.57,9.6S638,862.71,638,856.46Zm9.11,0c0-5-1.12-6.16-2.55-6.16s-2.55,1.15-2.55,6.16,1.12,6.32,2.55,6.32S647.11,861.47,647.11,856.46Z"/><path class="cls-1" d="M654.2,862.29h4V851.67h-3.44V849a12.38,12.38,0,0,0,4.56-1.67h3.13v14.93h3.43v3.43H654.2Z"/><path class="cls-1" d="M668.51,856.46c0-6.25,2.62-9.44,6.57-9.44s6.56,3.22,6.56,9.44-2.62,9.6-6.56,9.6S668.51,862.71,668.51,856.46Zm9.11,0c0-5-1.11-6.16-2.54-6.16s-2.55,1.15-2.55,6.16,1.12,6.32,2.55,6.32S677.62,861.47,677.62,856.46Z"/><path class="cls-1" d="M684.71,862.29h4V851.67h-3.43V849a12.26,12.26,0,0,0,4.55-1.67H693v14.93h3.44v3.43h-11.7Z"/><path class="cls-1" d="M699,856.46c0-6.25,2.62-9.44,6.56-9.44s6.57,3.22,6.57,9.44-2.62,9.6-6.57,9.6S699,862.71,699,856.46Zm9.11,0c0-5-1.12-6.16-2.55-6.16s-2.54,1.15-2.54,6.16,1.11,6.32,2.54,6.32S708.14,861.47,708.14,856.46Z"/><path class="cls-1" d="M714.28,856.46c0-6.25,2.63-9.44,6.57-9.44s6.57,3.22,6.57,9.44-2.63,9.6-6.57,9.6S714.28,862.71,714.28,856.46Zm9.12,0c0-5-1.12-6.16-2.55-6.16s-2.55,1.15-2.55,6.16,1.12,6.32,2.55,6.32S723.4,861.47,723.4,856.46Z"/><path class="cls-1" d="M730.49,862.29h4V851.67h-3.44V849a12.26,12.26,0,0,0,4.55-1.67h3.14v14.93h3.43v3.43H730.49Z"/><path class="cls-1" d="M686.35,179.09a322.18,322.18,0,0,0-46.65-25.94C625.4,146.68,572.53,124,499.63,124c-72.74,0-125.55,22.55-140.06,29.11a322.62,322.62,0,0,0-46.7,25.94,271.07,271.07,0,0,0-121.5,227.48,25.69,25.69,0,0,0,25.69,25.69h565.1a25.69,25.69,0,0,0,25.69-25.69A271.11,271.11,0,0,0,686.35,179.09Z"/><circle class="cls-2" cx="371.18" cy="303.82" r="25.69"/><circle class="cls-2" cx="628.04" cy="303.82" r="25.69"/></svg>